<svg xmlns="http://www.w3.org/2000/svg" xmlns:xlink="http://www.w3.org/1999/xlink" viewBox="0 0 280.12 219.62"><defs><style>.cls-1{mask:url(#mask);filter:url(#luminosity-noclip-3);}.cls-11,.cls-13,.cls-2,.cls-22,.cls-24,.cls-33,.cls-36,.cls-37,.cls-38,.cls-39,.cls-4,.cls-40,.cls-41,.cls-43,.cls-44,.cls-46,.cls-54,.cls-56,.cls-57,.cls-58,.cls-61,.cls-62,.cls-63,.cls-64,.cls-66,.cls-9{mix-blend-mode:multiply;}.cls-2{fill:url(#radial-gradient);}.cls-3{mask:url(#mask-2);filter:url(#luminosity-noclip-4);}.cls-4{fill:url(#radial-gradient-2);}.cls-5{isolation:isolate;}.cls-6{fill:url(#linear-gradient);}.cls-7{fill:url(#linear-gradient-2);}.cls-8{fill:url(#linear-gradient-3);}.cls-22,.cls-24,.cls-46,.cls-9{fill:#e4edfc;}.cls-9{opacity:0.8;}.cls-10{fill:url(#linear-gradient-4);}.cls-11,.cls-13{opacity:0.3;}.cls-11{fill:url(#linear-gradient-5);}.cls-12{fill:url(#linear-gradient-6);}.cls-13{fill:url(#linear-gradient-7);}.cls-14{fill:#0d0da0;}.cls-15{fill:#3126d6;}.cls-16{fill:#4141f2;}.cls-17{fill:#2626d1;}.cls-18{fill:#3636e8;}.cls-19{fill:url(#linear-gradient-8);}.cls-20{fill:#5385a6;}.cls-21{fill:url(#radial-gradient-3);}.cls-22,.cls-45{opacity:0.6;}.cls-23{fill:url(#radial-gradient-4);}.cls-24,.cls-47{opacity:0.7;}.cls-25{fill:url(#linear-gradient-9);}.cls-26,.cls-34,.cls-47{fill:#eef5ff;}.cls-26,.cls-33,.cls-36,.cls-37,.cls-38,.cls-40,.cls-41,.cls-43,.cls-44,.cls-46,.cls-54,.cls-56,.cls-57,.cls-58,.cls-61,.cls-62,.cls-63,.cls-64{opacity:0.4;}.cls-27{fill:url(#linear-gradient-10);}.cls-28{fill:url(#linear-gradient-11);}.cls-29{fill:#fe2055;}.cls-30{fill:#d7e2f5;}.cls-31{fill:#ffc062;}.cls-32{fill:url(#linear-gradient-12);}.cls-33{fill:url(#radial-gradient-5);}.cls-35{fill:url(#linear-gradient-13);}.cls-36{fill:url(#radial-gradient-6);}.cls-37{fill:url(#radial-gradient-7);}.cls-38{fill:url(#radial-gradient-8);}.cls-39,.cls-40{fill:#d8164e;}.cls-39,.cls-66{opacity:0.2;}.cls-41{fill:url(#radial-gradient-9);}.cls-42{fill:url(#radial-gradient-10);}.cls-43{fill:url(#radial-gradient-11);}.cls-44{fill:url(#radial-gradient-12);}.cls-45,.cls-67{fill:#fff;}.cls-48{mask:url(#mask-3);}.cls-49{fill:url(#radial-gradient-13);}.cls-50{mask:url(#mask-4);}.cls-51{fill:url(#radial-gradient-14);}.cls-52{fill:#31439e;}.cls-53{fill:url(#linear-gradient-14);}.cls-54{fill:url(#radial-gradient-15);}.cls-55{fill:#3232e0;}.cls-56{fill:url(#radial-gradient-16);}.cls-57{fill:url(#radial-gradient-17);}.cls-58{fill:url(#radial-gradient-18);}.cls-59{fill:#ef9d30;}.cls-60{fill:url(#linear-gradient-15);}.cls-61{fill:url(#radial-gradient-19);}.cls-62{fill:url(#radial-gradient-20);}.cls-63{fill:url(#radial-gradient-21);}.cls-64{fill:url(#radial-gradient-22);}.cls-65{fill:url(#radial-gradient-23);}.cls-67{opacity:0;}.cls-68{fill:#fcfcfc;opacity:0.01;}.cls-69{fill:#fafafa;opacity:0.02;}.cls-70{fill:#f7f7f7;opacity:0.03;}.cls-71{fill:#f5f5f5;opacity:0.04;}.cls-72{fill:#f2f2f2;opacity:0.05;}.cls-73{fill:#f0f0f0;opacity:0.06;}.cls-74{fill:#ededed;opacity:0.07;}.cls-75{fill:#ebebeb;opacity:0.08;}.cls-76{fill:#e8e8e8;opacity:0.09;}.cls-77{fill:#e6e6e6;opacity:0.1;}.cls-78{fill:#e3e3e3;opacity:0.11;}.cls-79{fill:#e1e1e1;opacity:0.12;}.cls-80{fill:#dedede;opacity:0.13;}.cls-81{fill:#dcdcdc;opacity:0.14;}.cls-82{fill:#d9d9d9;opacity:0.15;}.cls-83{fill:#d7d7d7;opacity:0.16;}.cls-84{fill:#d4d4d4;opacity:0.17;}.cls-85{fill:#d2d2d2;opacity:0.18;}.cls-86{fill:#cfcfcf;opacity:0.19;}.cls-87{fill:#cdcdcd;opacity:0.2;}.cls-88{fill:#cacaca;opacity:0.21;}.cls-89{fill:#c7c7c7;opacity:0.22;}.cls-90{fill:#c5c5c5;opacity:0.23;}.cls-91{fill:#c2c2c2;opacity:0.24;}.cls-92{fill:silver;opacity:0.25;}.cls-93{fill:#bdbdbd;opacity:0.26;}.cls-94{fill:#bbb;opacity:0.27;}.cls-95{fill:#b8b8b8;opacity:0.28;}.cls-96{fill:#b6b6b6;opacity:0.29;}.cls-97{fill:#b3b3b3;opacity:0.3;}.cls-98{fill:#b1b1b1;opacity:0.31;}.cls-99{fill:#aeaeae;opacity:0.32;}.cls-100{fill:#acacac;opacity:0.33;}.cls-101{fill:#a9a9a9;opacity:0.34;}.cls-102{fill:#a7a7a7;opacity:0.35;}.cls-103{fill:#a4a4a4;opacity:0.36;}.cls-104{fill:#a2a2a2;opacity:0.37;}.cls-105{fill:#9f9f9f;opacity:0.38;}.cls-106{fill:#9d9d9d;opacity:0.39;}.cls-107{fill:#9a9a9a;opacity:0.4;}.cls-108{fill:#979797;opacity:0.41;}.cls-109{fill:#959595;opacity:0.42;}.cls-110{fill:#929292;opacity:0.43;}.cls-111{fill:#909090;opacity:0.44;}.cls-112{fill:#8d8d8d;opacity:0.45;}.cls-113{fill:#8b8b8b;opacity:0.46;}.cls-114{fill:#888;opacity:0.47;}.cls-115{fill:#868686;opacity:0.48;}.cls-116{fill:#838383;opacity:0.49;}.cls-117{fill:#818181;opacity:0.5;}.cls-118{fill:#7e7e7e;opacity:0.5;}.cls-119{fill:#7c7c7c;opacity:0.51;}.cls-120{fill:#797979;opacity:0.52;}.cls-121{fill:#777;opacity:0.53;}.cls-122{fill:#747474;opacity:0.54;}.cls-123{fill:#727272;opacity:0.55;}.cls-124{fill:#6f6f6f;opacity:0.56;}.cls-125{fill:#6d6d6d;opacity:0.57;}.cls-126{fill:#6a6a6a;opacity:0.58;}.cls-127{fill:#686868;opacity:0.59;}.cls-128{fill:#656565;opacity:0.6;}.cls-129{fill:#626262;opacity:0.61;}.cls-130{fill:#606060;opacity:0.62;}.cls-131{fill:#5d5d5d;opacity:0.63;}.cls-132{fill:#5b5b5b;opacity:0.64;}.cls-133{fill:#585858;opacity:0.65;}.cls-134{fill:#565656;opacity:0.66;}.cls-135{fill:#535353;opacity:0.67;}.cls-136{fill:#515151;opacity:0.68;}.cls-137{fill:#4e4e4e;opacity:0.69;}.cls-138{fill:#4c4c4c;opacity:0.7;}.cls-139{fill:#494949;opacity:0.71;}.cls-140{fill:#474747;opacity:0.72;}.cls-141{fill:#444;opacity:0.73;}.cls-142{fill:#424242;opacity:0.74;}.cls-143{fill:#3f3f3f;opacity:0.75;}.cls-144{fill:#3d3d3d;opacity:0.76;}.cls-145{fill:#3a3a3a;opacity:0.77;}.cls-146{fill:#383838;opacity:0.78;}.cls-147{fill:#353535;opacity:0.79;}.cls-148{fill:#323232;opacity:0.8;}.cls-149{fill:#303030;opacity:0.81;}.cls-150{fill:#2d2d2d;opacity:0.82;}.cls-151{fill:#2b2b2b;opacity:0.83;}.cls-152{fill:#282828;opacity:0.84;}.cls-153{fill:#262626;opacity:0.85;}.cls-154{fill:#232323;opacity:0.86;}.cls-155{fill:#212121;opacity:0.87;}.cls-156{fill:#1e1e1e;opacity:0.88;}.cls-157{fill:#1c1c1c;opacity:0.89;}.cls-158{fill:#191919;opacity:0.9;}.cls-159{fill:#171717;opacity:0.91;}.cls-160{fill:#141414;opacity:0.92;}.cls-161{fill:#121212;opacity:0.93;}.cls-162{fill:#0f0f0f;opacity:0.94;}.cls-163{fill:#0d0d0d;opacity:0.95;}.cls-164{fill:#0a0a0a;opacity:0.96;}.cls-165{fill:#080808;opacity:0.97;}.cls-166{fill:#050505;opacity:0.98;}.cls-167{fill:#030303;opacity:0.99;}.cls-168{filter:url(#luminosity-noclip-2);}.cls-169{filter:url(#luminosity-noclip);}</style><filter id="luminosity-noclip" x="168.77" y="-8197.99" width="11.48" height="32766" filterUnits="userSpaceOnUse" color-interpolation-filters="sRGB"><feFlood flood-color="#fff" result="bg"/><feBlend in="SourceGraphic" in2="bg"/></filter><mask id="mask" x="168.77" y="-8197.99" width="11.48" height="32766" maskUnits="userSpaceOnUse"><g class="cls-169"/></mask><radialGradient id="radial-gradient" cx="174.51" cy="18.58" r="5.74" gradientUnits="userSpaceOnUse"><stop offset="0" stop-color="#fff"/><stop offset="0.12" stop-color="#f7f7f7"/><stop offset="0.32" stop-color="#e1e1e1"/><stop offset="0.55" stop-color="#bcbcbc"/><stop offset="0.82" stop-color="#8b8b8b"/><stop offset="1" stop-color="#666"/></radialGradient><filter id="luminosity-noclip-2" x="149.36" y="-8197.99" width="11.48" height="32766" filterUnits="userSpaceOnUse" color-interpolation-filters="sRGB"><feFlood flood-color="#fff" result="bg"/><feBlend in="SourceGraphic" in2="bg"/></filter><mask id="mask-2" x="149.36" y="-8197.99" width="11.48" height="32766" maskUnits="userSpaceOnUse"><g class="cls-168"/></mask><radialGradient id="radial-gradient-2" cx="155.1" cy="21.09" r="5.74" xlink:href="#radial-gradient"/><linearGradient id="linear-gradient" x1="182.31" y1="207.7" x2="234.95" y2="207.7" gradientUnits="userSpaceOnUse"><stop offset="0" stop-color="#dee4f5"/><stop offset="0.98" stop-color="#d7e2f5"/></linearGradient><linearGradient id="linear-gradient-2" x1="185.35" y1="207.68" x2="232.69" y2="207.68" gradientUnits="userSpaceOnUse"><stop offset="0" stop-color="#ffc062"/><stop offset="1" stop-color="#ffb052"/></linearGradient><linearGradient id="linear-gradient-3" x1="182.31" y1="217.03" x2="234.96" y2="217.03" gradientUnits="userSpaceOnUse"><stop offset="0" stop-color="#41b1e1"/><stop offset="1" stop-color="#6ccaea"/></linearGradient><linearGradient id="linear-gradient-4" x1="148.62" y1="42.7" x2="140.36" y2="58.47" gradientUnits="userSpaceOnUse"><stop offset="0" stop-color="#91d3ea"/><stop offset="1" stop-color="#6ccaea"/></linearGradient><linearGradient id="linear-gradient-5" x1="154.31" y1="49.47" x2="155.86" y2="37.89" xlink:href="#linear-gradient-3"/><linearGradient id="linear-gradient-6" x1="107.52" y1="112.32" x2="117.02" y2="41.31" xlink:href="#linear-gradient-3"/><linearGradient id="linear-gradient-7" x1="112.42" y1="112.97" x2="121.46" y2="45.38" xlink:href="#linear-gradient-3"/><linearGradient id="linear-gradient-8" x1="169.61" y1="62.57" x2="164.43" y2="12.77" xlink:href="#linear-gradient-2"/><radialGradient id="radial-gradient-3" cx="166.53" cy="139.4" r="52.93" gradientUnits="userSpaceOnUse"><stop offset="0.01" stop-color="#eef5ff"/><stop offset="0.98" stop-color="#d7e2f5"/></radialGradient><radialGradient id="radial-gradient-4" cx="195.62" cy="111.62" r="12.05" xlink:href="#radial-gradient-3"/><linearGradient id="linear-gradient-9" x1="112.93" y1="85.72" x2="201.97" y2="85.72" gradientUnits="userSpaceOnUse"><stop offset="0" stop-color="#e7ebf5"/><stop offset="0.98" stop-color="#d7e2f5"/></linearGradient><linearGradient id="linear-gradient-10" x1="211.21" y1="178.63" x2="100.25" y2="188" gradientUnits="userSpaceOnUse"><stop offset="0" stop-color="#2848d6"/><stop offset="1" stop-color="#1d14c8"/></linearGradient><linearGradient id="linear-gradient-11" x1="72.56" y1="20.38" x2="236.35" y2="20.38" xlink:href="#linear-gradient-9"/><linearGradient id="linear-gradient-12" x1="188.24" y1="14.16" x2="124.13" y2="29.45" xlink:href="#linear-gradient-10"/><radialGradient id="radial-gradient-5" cx="159.49" cy="22.67" r="14.17" gradientUnits="userSpaceOnUse"><stop offset="0" stop-color="#3126d6"/><stop offset="1" stop-color="#1d14c8"/></radialGradient><linearGradient id="linear-gradient-13" x1="179.39" y1="41.48" x2="137.97" y2="44.77" xlink:href="#linear-gradient-10"/><radialGradient id="radial-gradient-6" cx="158.9" cy="43.38" r="5.72" xlink:href="#radial-gradient-5"/><radialGradient id="radial-gradient-7" cx="148.36" cy="111.34" r="5.97" xlink:href="#radial-gradient-5"/><radialGradient id="radial-gradient-8" cx="146.55" cy="116.52" r="3.49" xlink:href="#radial-gradient-5"/><radialGradient id="radial-gradient-9" cx="126.29" cy="75.36" r="15.09" xlink:href="#radial-gradient-5"/><radialGradient id="radial-gradient-10" cx="135.67" cy="88.53" r="23.32" xlink:href="#radial-gradient-3"/><radialGradient id="radial-gradient-11" cx="112.5" cy="184.94" r="16.82" xlink:href="#radial-gradient-5"/><radialGradient id="radial-gradient-12" cx="196.59" cy="184.7" r="7.19" xlink:href="#radial-gradient-5"/><filter id="luminosity-noclip-3" x="168.77" y="12.84" width="11.48" height="11.48" filterUnits="userSpaceOnUse" color-interpolation-filters="sRGB"><feFlood flood-color="#fff" result="bg"/><feBlend in="SourceGraphic" in2="bg"/></filter><mask id="mask-3" x="168.77" y="12.84" width="11.48" height="11.48" maskUnits="userSpaceOnUse"><g class="cls-1"><path class="cls-2" d="M168.77,18.58a5.74,5.74,0,1,1,5.73,5.74A5.74,5.74,0,0,1,168.77,18.58Z"/></g></mask><radialGradient id="radial-gradient-13" cx="174.51" cy="18.58" r="5.74" gradientUnits="userSpaceOnUse"><stop offset="0" stop-color="#45b9c5"/><stop offset="0.17" stop-color="#43b1c6"/><stop offset="0.44" stop-color="#3f9bca"/><stop offset="0.76" stop-color="#3777d1"/><stop offset="1" stop-color="#3158d6"/></radialGradient><filter id="luminosity-noclip-4" x="149.36" y="15.35" width="11.48" height="11.48" filterUnits="userSpaceOnUse" color-interpolation-filters="sRGB"><feFlood flood-color="#fff" result="bg"/><feBlend in="SourceGraphic" in2="bg"/></filter><mask id="mask-4" x="149.36" y="15.35" width="11.48" height="11.48" maskUnits="userSpaceOnUse"><g class="cls-3"><path class="cls-4" d="M149.36,21.09a5.74,5.74,0,1,1,5.74,5.74A5.74,5.74,0,0,1,149.36,21.09Z"/></g></mask><radialGradient id="radial-gradient-14" cx="155.1" cy="21.09" r="5.74" xlink:href="#radial-gradient-13"/><linearGradient id="linear-gradient-14" x1="210.68" y1="207.07" x2="203.77" y2="116.66" gradientUnits="userSpaceOnUse"><stop offset="0" stop-color="#f2f2f5"/><stop offset="0.98" stop-color="#d7e2f5"/></linearGradient><radialGradient id="radial-gradient-15" cx="201.87" cy="110.69" r="5.1" xlink:href="#radial-gradient-5"/><radialGradient id="radial-gradient-16" cx="202.48" cy="114.06" r="5.01" xlink:href="#radial-gradient-5"/><radialGradient id="radial-gradient-17" cx="202.91" cy="117.64" r="4.66" xlink:href="#radial-gradient-5"/><radialGradient id="radial-gradient-18" cx="203.08" cy="121.02" r="4.57" xlink:href="#radial-gradient-5"/><linearGradient id="linear-gradient-15" x1="208.33" y1="54.11" x2="198.59" y2="94.18" xlink:href="#linear-gradient-2"/><radialGradient id="radial-gradient-19" cx="204.25" cy="130.61" r="5.02" xlink:href="#radial-gradient-5"/><radialGradient id="radial-gradient-20" cx="205.01" cy="134.82" r="4.96" xlink:href="#radial-gradient-5"/><radialGradient id="radial-gradient-21" cx="203.51" cy="138.2" r="5.07" xlink:href="#radial-gradient-5"/><radialGradient id="radial-gradient-22" cx="200.74" cy="140.84" r="5.04" xlink:href="#radial-gradient-5"/><radialGradient id="radial-gradient-23" cx="187.08" cy="125.93" r="28.05" xlink:href="#radial-gradient-3"/></defs><g class="cls-5"><g id="Layer_2" data-name="Layer 2"><g id="Layer_1-2" data-name="Layer 1"><polygon class="cls-6" points="234.95 198.81 234.77 214.44 182.31 216.59 186.67 200.97 195.15 200.59 205.82 200.11 234.95 198.81"/><path class="cls-7" d="M185.6,214.23a.29.29,0,0,1-.2-.09.29.29,0,0,1,0-.22l3-10.64a.25.25,0,0,1,.23-.17l43.89-2a.21.21,0,0,1,.18.07.23.23,0,0,1,.07.18l-.12,10.69a.23.23,0,0,1-.23.24l-46.73,1.91Zm3.16-10.64-2.83,10.13,46.15-1.88.12-10.2Z"/><polygon class="cls-8" points="182.31 216.58 182.31 219.62 234.96 218.23 234.76 214.44 182.31 216.58"/><path class="cls-9" d="M211.37,207.67c-1.3.11-11.62-4.06-16.22-7.08l10.67-.48C210.63,202.41,218.86,207,211.37,207.67Z"/><path class="cls-10" d="M187.32,45s-4.82-.12-11.33-.14c-8.29,0-19.31.13-26.63.93-3.09.33-5.83.75-8.23,1.19a65.27,65.27,0,0,0-11.84,3.1l-.65-.44c.41-.36.65-.53.65-.53a10.86,10.86,0,0,0-3.19-2.53,63.8,63.8,0,0,0-10.28-4.27A18.61,18.61,0,0,0,110.2,41a5.17,5.17,0,0,0-.57,0c-.82-.06,12-1.19,24.4-2.12,5.78-.44,11.45-.83,15.58-1.06C156,37.52,165.1,39.21,172.8,41c1.46.35,2.86.7,4.19,1C183,43.61,187.32,45,187.32,45Z"/><path class="cls-11" d="M177,42.07a10.86,10.86,0,0,1-1,2.77A11.89,11.89,0,0,1,174.5,47c-3.28,3.78-25.18,2.94-33.37-.08l-.61-.24c-4.65-2-6.66-4.93-6.49-7.79,5.78-.44,11.45-.83,15.58-1.06C156,37.52,165.1,39.21,172.8,41,174.26,41.38,175.66,41.73,177,42.07Z"/><path class="cls-12" d="M129.29,49.09s-.24.17-.65.53c-2.1,1.87-8.79,8.92-11.31,25-3,19.25,3,38.17,3,38.17s-1.41,1.32-8-.16q-1.72-.37-4-1c-8.72-2.63-9.21-11.17-9.24-22.16s1.51-30.6,4.14-40c1.67-5.94,3.53-8.17,6.39-8.41a16.21,16.21,0,0,1,6.19,1.24A64.22,64.22,0,0,1,126,46.52,11.08,11.08,0,0,1,129.29,49.09Z"/><path class="cls-13" d="M129.29,49.09s-.24.17-.65.53c-2.1,1.87-8.79,8.92-11.31,25-3,19.25,3,38.17,3,38.17s-1.41,1.32-8-.16c-2.57-9.11-4.22-22.85-2.71-40.28C111.31,52.51,119.8,49.47,126,46.52A11.08,11.08,0,0,1,129.29,49.09Z"/><path class="cls-14" d="M213.87,174c0-10.77-5.91-19.54-13.3-19.89l0,0h-8.81c7.6,0,13.75,8.91,13.75,19.91s-6.15,19.92-13.75,19.92h8.32l.39,0h.1C208,193.48,213.87,184.72,213.87,174Z"/><path class="cls-15" d="M191.79,154.05C184.2,154.05,178,163,178,174s6.16,19.92,13.75,19.92S205.54,185,205.54,174,199.39,154.05,191.79,154.05Z"/><path class="cls-16" d="M191.79,161.83c-4.63,0-8.38,5.43-8.38,12.13s3.75,12.13,8.38,12.13,8.38-5.43,8.38-12.13S196.42,161.83,191.79,161.83Z"/><path class="cls-15" d="M191.79,167.2c-2.58,0-4.67,3-4.67,6.76s2.09,6.77,4.67,6.77,4.67-3,4.67-6.77S194.37,167.2,191.79,167.2Z"/><path class="cls-17" d="M196.81,45.87a9.36,9.36,0,0,0-1.83-.09h0l-.17,0a8.14,8.14,0,0,0-1.29.17l-2.89.37h0a9.13,9.13,0,0,1,1.73.09c7.61,1.16,12.35,11.41,10.6,22.9-1.38,9-6.35,16.12-12.11,18.19,7.47.8,14.81-7.47,16.53-18.75C209.16,57.29,204.41,47,196.81,45.87Z"/><path class="cls-18" d="M192.39,46.43a9.13,9.13,0,0,0-1.73-.09c-7,.23-13.6,8.18-15.22,18.79-1.75,11.49,3,21.74,10.6,22.9a9.75,9.75,0,0,0,4.84-.51c5.76-2.07,10.73-9.17,12.11-18.19C204.74,57.84,200,47.59,192.39,46.43Z"/><path class="cls-17" d="M191.44,52.69a7.14,7.14,0,0,0-1.22-.07c-4.89.17-9.5,5.72-10.63,13.14-1.23,8,2.09,15.21,7.41,16a7,7,0,0,0,3.38-.36c4-1.45,7.5-6.41,8.47-12.72C200.07,60.67,196.75,53.5,191.44,52.69Z"/><path class="cls-19" d="M216.83,28.12c0,9-4.09,21.06-8.05,32.72-3.38,10-6.58,19.45-7,26.11a1.72,1.72,0,0,1-1.72,1.62H200a1.75,1.75,0,0,1-1.63-1.83c.43-7.12,3.69-16.77,7.15-27,3.87-11.41,7.86-23.2,7.87-31.63,0-8.73-1.74-10.09-2.29-10.3s-2.7-.37-8.41,6c-4.55,5.09-16.5,18.44-39.34,18.44l-1.38,0c-13.6-.32-27.72-12.4-37.06-20.39-2.94-2.5-6.19-5.29-7.83-6.19.21,2.44,6.89,16.68,10.65,24.53,1.48,3.09,2.5,5.19,2.5,5.19l-3.93.08s-1-1.91-2.56-4.9c-1.26-2.45-2.84-5.62-4.44-9-6.42-13.79-6.5-17.52-4.53-19,2.33-1.83,5.48.86,12.38,6.77,9,7.67,22.53,19.27,34.9,19.56,22.17.51,33.72-12.41,38.06-17.27,5.29-5.9,9.17-8.1,12.23-6.93S216.85,20.08,216.83,28.12Z"/><path class="cls-20" d="M112.93,53.76c-1.46-.1-3.6,4.68-5.09,11.08s-2,22.72-.57,23.29,4,.55,4.19-.55-.43-10.48,1.47-18.7,3.63-11.13,3.79-12.57S115.47,53.92,112.93,53.76Z"/><path class="cls-21" d="M200.81,175.57a9.24,9.24,0,0,1-3.51,2.11c-7.76,3.33-27,7.95-48.52,8.25a106.36,106.36,0,0,1-17.22-1.26,114.25,114.25,0,0,1-18.6-4.5c-9.25-3.1-15.77-6.84-16.92-9.52a1.81,1.81,0,0,1-.15-1.12c.32-1.48,1.24-4.5,2.49-8.25,3.13-9.31,8.38-23.13,11.81-29.11,4.81-8.38,9.49-9.49,14.42-9.37l8,.09c10.84.14,29.74.41,37.27.7a56.92,56.92,0,0,1,11.65,1.47c5.44,1.36,9.83,3.83,12.76,8.13C199.08,140.23,202.9,172.61,200.81,175.57Z"/><path class="cls-9" d="M131.56,184.67a114.25,114.25,0,0,1-18.6-4.5c-9.25-3.1-15.77-6.84-16.92-9.52a1.81,1.81,0,0,1-.15-1.12c.32-1.48,1.24-4.5,2.49-8.25,10.31-5,22.21-2.23,26.6,1.47C129.94,166.91,131.55,178.11,131.56,184.67Z"/><path class="cls-22" d="M200.81,175.57a9.24,9.24,0,0,1-3.51,2.11,114.56,114.56,0,0,0-.36-19.53c-1.32-14.32-5.49-25.86-15.43-33.09,5.44,1.36,9.83,3.83,12.76,8.13C199.08,140.23,202.9,172.61,200.81,175.57Z"/><path class="cls-9" d="M132.67,123c-5.66,2.71-12.76,6.37-15.34,22.65-1.14,7.2-2.82,21.2-4.37,34.52-9.25-3.1-15.77-6.84-16.92-9.52a1.81,1.81,0,0,1-.15-1.12c1.11-5.18,9.49-29,14.3-37.36s9.49-9.49,14.42-9.37l8,.09Z"/><path class="cls-23" d="M200.86,124.52l-.3,2.9c-9.53-6.4-11.32-18.16-11.32-18.16l4.33-8.41,2.59-5s5.55,9.22,5.81,12.7C202.16,111.05,201.33,119.87,200.86,124.52Z"/><path class="cls-24" d="M200.86,124.52l-.3,2.9c-9.53-6.4-11.32-18.16-11.32-18.16l4.33-8.41C194.21,110,196.1,119.24,200.86,124.52Z"/><path class="cls-25" d="M201.16,75.57a98.67,98.67,0,0,1-3.44,15.93c-3.29,10.55-12.26,25.18-18.79,31a17.78,17.78,0,0,1-1.8,1.4c-.16.11-.33.22-.49.31-6.53,3.84-40.56,5.17-49.81-1a27.36,27.36,0,0,1-3.8-3c-6.18-6-8.16-14.07-9.51-26.27-1.61-14.4.23-24.66,3.7-33.43a19.49,19.49,0,0,1,6.87-8.73,28.82,28.82,0,0,1,5.83-3.25,47.07,47.07,0,0,1,8.74-2.63c12.73-2.63,27.91-1.61,37.74-1.54a68.14,68.14,0,0,1,12.8,1c7.31,1.49,10.11,4.65,11.73,9.94C202.32,59.78,202.23,67.54,201.16,75.57Z"/><path class="cls-26" d="M201.16,75.57c-38.08,14.36-62.68-9.17-77.07-23.88a28.82,28.82,0,0,1,5.83-3.25,47.07,47.07,0,0,1,8.74-2.63c12.73-2.63,27.91-1.61,37.74-1.54a68.14,68.14,0,0,1,12.8,1c7.31,1.49,10.11,4.65,11.73,9.94C202.32,59.78,202.23,67.54,201.16,75.57Z"/><path class="cls-9" d="M177.13,123.86c-.16.11-.33.22-.49.31-6.53,3.84-40.56,5.17-49.81-1a27.36,27.36,0,0,1-3.8-3c-6.18-6-8.16-14.07-9.51-26.27-1.61-14.4.23-24.66,3.7-33.43,2.27-5.76,6.88-9.52,12.7-12-1.76,5.85-4.77,19.3-2.35,37.28C130.58,108.06,140.81,126.5,177.13,123.86Z"/><path class="cls-9" d="M189.2,45.31a51.86,51.86,0,0,1-16.33,4.15c-15.24,1.66-29.46-.33-34.21-3.65,12.73-2.63,27.91-1.61,37.74-1.54A68.14,68.14,0,0,1,189.2,45.31Z"/><path class="cls-27" d="M192.11,193.84c-.45.27-.92.53-1.42.8-10,5.43-28.93,6.74-52.92,5.43-3.63-.2-7.06-.49-10.26-.83-18-2-29.25-6.08-32.32-10.69-3.62-5.42-.5-16.43.66-17.91H96c1.82,4.25,17.13,11.15,35.4,14a104.51,104.51,0,0,0,17.34,1.29c21.3-.3,40.34-4.82,48.27-8.14,2-.85,3.33-1.62,3.76-2.22C201.66,183.23,200.82,188.66,192.11,193.84Z"/><path class="cls-28" d="M184,35a38,38,0,0,1-7.31,2.85c-1.11.32-2.26.63-3.46.9a74.7,74.7,0,0,1-21.65,1.83,31.66,31.66,0,0,1-10.4-2.37C131,33.57,128.55,27.34,128.42,22c0-.46,0-.91,0-1.35,0-.06,0-.13,0-.19a16,16,0,0,1,5.94-11.6c8.43-7.23,24.32-9.45,37.9-8.66,17,1,21,8.65,21.69,14.32S193.32,30,184,35Z"/><path class="cls-29" d="M178.93,122.46c-.31.83-.75,1.94-1.28,3.11-1.19,2.64-2.87,5.62-4.71,6.6-3.54,1.89-8.3,2.9-20.55,3a82.69,82.69,0,0,1-12-.72c-6.49-.92-11.42-2.72-13.69-5.38a14.47,14.47,0,0,1-2.07-3.77c-.17-.45-.35-.92-.51-1.4a32.24,32.24,0,0,1-1.06-3.76,27.36,27.36,0,0,0,3.8,3c3.48,2.33,10.46,3.58,18.17,4,12.78.77,27.56-.65,31.64-3A15.22,15.22,0,0,0,178.93,122.46Z"/><path class="cls-17" d="M143.17,71.9a30.1,30.1,0,0,1-2.65,8.67c-3.2,6.54-8.5,10.66-13.87,10.09,5.25-1.89,9.86-8,11.67-15.88.17-.76.32-1.53.44-2.31,1.75-11.5-3-21.75-10.61-22.9a10,10,0,0,0-1.73-.11h0l2.89-.37a9.5,9.5,0,0,1,1.29-.17l.17,0h0a9.37,9.37,0,0,1,1.83.1C140.18,50.17,144.93,60.42,143.17,71.9Z"/><path class="cls-18" d="M138.76,72.47c-.12.78-.27,1.55-.44,2.31-1.81,7.9-6.42,14-11.67,15.88a10,10,0,0,1-4.84.51c-4.5-.69-8-4.57-9.74-10a28.52,28.52,0,0,1-.86-12.91c1.62-10.62,8.22-18.57,15.21-18.81a10,10,0,0,1,1.73.11C135.76,50.72,140.51,61,138.76,72.47Z"/><path class="cls-17" d="M127.2,55.82a7,7,0,0,0-1.21-.07c-4.89.17-9.5,5.72-10.64,13.14-1.22,8,2.1,15.21,7.41,16a6.88,6.88,0,0,0,3.39-.36c4-1.45,7.5-6.41,8.46-12.72C135.84,63.8,132.52,56.63,127.2,55.82Z"/><path class="cls-30" d="M194.76,68.39c0,5.2-3.1,9.78-8.43,12.78a30.43,30.43,0,0,1-12.52,3.54c-12.7,1-22.57-2.35-22.83-14.34-.11-4.91,2.54-8.22,6.17-10.47,5.26-3.25,12.61-4.27,16.66-4.65C189.77,53.74,194.76,59.92,194.76,68.39Z"/><path class="cls-31" d="M162,69.43a2.48,2.48,0,1,1,2.48,2.48A2.48,2.48,0,0,1,162,69.43Z"/><path class="cls-31" d="M172.87,68.39a2.48,2.48,0,1,1,2.48,2.48A2.48,2.48,0,0,1,172.87,68.39Z"/><path class="cls-31" d="M183,67.32a2.48,2.48,0,1,1,2.48,2.49A2.49,2.49,0,0,1,183,67.32Z"/><path class="cls-29" d="M143,22.57a.73.73,0,0,1-.68.8c-1.12.08-2.21.13-3.25.13A35.33,35.33,0,0,1,128.42,22c0-.46,0-.91,0-1.35,0-.06,0-.13,0-.19a35.54,35.54,0,0,0,13.8,1.48A.74.74,0,0,1,143,22.57Z"/><path class="cls-32" d="M184.45,24c-1.48,2.42-4.17,4.5-7.82,6-4.66,2-10.87,3.13-18.07,3-12.83-.25-16-6-16.19-11-.18-4.15,1.83-7.36,5-9.76,9-6.77,27.64-7,33.59-3.23C187.62,13.24,187.82,18.5,184.45,24Z"/><path class="cls-33" d="M176.63,30.06c-4.66,2-10.87,3.13-18.07,3-12.83-.25-16-6-16.19-11-.18-4.15,1.83-7.36,5-9.76C154.56,20.31,167.77,27.48,176.63,30.06Z"/><path class="cls-34" d="M159.74,33.8h-1.2c-13.59-.26-16.7-6.52-16.91-11.73A11.36,11.36,0,0,1,145,13.43c5.35-5.58,15.7-7.56,23.61-7.56,5.57,0,10.23.93,12.8,2.55,6.35,4,7.63,9.54,3.69,16C181.53,30.19,171.82,33.8,159.74,33.8Zm8.85-26.46c-7.26,0-17.51,1.87-22.54,7.11A10,10,0,0,0,143.11,22c.27,6.55,5.62,10.11,15.46,10.3h1.17c11.39,0,20.84-3.41,24.08-8.7,3.53-5.78,2.48-10.34-3.22-13.95C178.3,8.22,173.81,7.34,168.59,7.34Z"/><path class="cls-35" d="M176.64,37.87a33.09,33.09,0,0,1-1.81,6.38c-.56,1-6.74,2.08-12.43,2.38-4.29.23-8.28,0-9.35-1-.81-.78-1.39-4-1.52-5a70.62,70.62,0,0,0,14.74-.55A73.38,73.38,0,0,0,176.64,37.87Z"/><path class="cls-36" d="M166.27,40.05a25,25,0,0,0-3.87,6.58c-4.29.23-8.28,0-9.35-1-.81-.78-1.39-4-1.52-5A70.62,70.62,0,0,0,166.27,40.05Z"/><path class="cls-18" d="M154.78,111.62c-1.18,1.48-2.56,3.48-4,5a8.39,8.39,0,0,1-3,2.28l-.34.1a4.58,4.58,0,0,1-4.5-1.77,2.23,2.23,0,0,1-.5-1.33,1.43,1.43,0,0,1,0-.29l.32-.15c.6-.35,1.48-.91,2.49-1.61h0c3.6-2.49,8.8-6.61,8.81-8.17a.93.93,0,0,0-.08-.33,1.12,1.12,0,0,1,.32,0c1.19.23,2.33,1.26,2.35,1.75C156.64,107.86,156.75,109.16,154.78,111.62Z"/><path class="cls-37" d="M150.42,112.58c-2.86,2.39-5.25,4.1-7.55,4.7a2.23,2.23,0,0,1-.5-1.33,1.43,1.43,0,0,1,0-.29l.32-.15c2.77-1.58,11.28-7.78,11.3-9.78a.93.93,0,0,0-.08-.33,1.12,1.12,0,0,1,.32,0C154.6,107,154.06,109.54,150.42,112.58Z"/><path class="cls-38" d="M150.74,116.67a8.39,8.39,0,0,1-3,2.28l-.34.1a4.58,4.58,0,0,1-4.5-1.77,2.23,2.23,0,0,1-.5-1.33,1.43,1.43,0,0,1,0-.29l.32-.15c.6-.35,1.48-.91,2.49-1.61h0A6.86,6.86,0,0,0,150.74,116.67Z"/><path class="cls-39" d="M145,127.21a25.87,25.87,0,0,0-4.64,7.22c-6.49-.92-11.42-2.72-13.69-5.38a14.47,14.47,0,0,1-2.07-3.77,33.64,33.64,0,0,1-1.57-5.16,27.36,27.36,0,0,0,3.8,3C130.31,125.49,137.29,126.74,145,127.21Z"/><path class="cls-40" d="M178.93,122.46c-.31.83-.75,1.94-1.28,3.11-11,5.93-30.58,4.89-39.56,3.48-6.85-1.07-11.41-3.14-14-5.17a32.24,32.24,0,0,1-1.06-3.76,27.36,27.36,0,0,0,3.8,3c3.48,2.33,10.46,3.58,18.17,4,12.78.77,27.56-.65,31.64-3A15.22,15.22,0,0,0,178.93,122.46Z"/><path class="cls-41" d="M140.52,80.57c-3.2,6.54-8.5,10.66-13.87,10.09a10,10,0,0,1-4.84.51c-4.5-.69-8-4.57-9.74-10a33.71,33.71,0,0,1,3.57-13.81c2.12-4.05,5.21-7.27,9.34-7.86,4.41-.61,7.47,2.61,9.77,6.86a62.38,62.38,0,0,1,3.57,8.41C139.12,77,139.83,79,140.52,80.57Z"/><path class="cls-42" d="M154,105.73c0,1-2,2.93-4.41,4.88a64,64,0,0,1-6.89,4.9l-.32.15c-2.59,1.2-4.16-1.6-8.69-6.55C129,104,122.8,96.66,119.29,84.54S117,64.15,123.12,61.66a6.57,6.57,0,0,1,2.31-.53c7.07-.18,7.36,15,11.9,23.41,4.76,8.81,15.61,18.26,16.61,20.86A.93.93,0,0,1,154,105.73Z"/><path class="cls-9" d="M173.18,38.77a74.7,74.7,0,0,1-21.65,1.83,31.66,31.66,0,0,1-10.4-2.37C131,33.57,128.55,27.34,128.42,22c0-.46,0-.91,0-1.35,0-.06,0-.13,0-.19a16,16,0,0,1,5.94-11.6C133.48,18.09,136.41,38.31,173.18,38.77Z"/><path class="cls-9" d="M149.61,110.61a64,64,0,0,1-6.89,4.9l-.32.15c-2.59,1.2-4.16-1.6-8.69-6.55C129,104,122.8,96.66,119.29,84.54S117,64.15,123.12,61.66a6.57,6.57,0,0,1,2.31-.53,33.45,33.45,0,0,0-3.16,21.41c1.85,11.66,7.19,20.25,16.85,25.81C143.37,110.79,146.94,111.07,149.61,110.61Z"/><path class="cls-43" d="M127.51,199.24c-18-2-29.25-6.08-32.32-10.69-3.62-5.42-.5-16.43.66-17.91H96c1.82,4.25,17.13,11.15,35.4,14C131.84,190.69,130.42,195.75,127.51,199.24Z"/><path class="cls-14" d="M127.57,179.34c0-11.47-6.29-20.8-14.15-21.18l0,0h-9.39c8.09,0,14.64,9.49,14.64,21.2s-6.55,21.2-14.64,21.2l8.48,0,.38,0,.42,0h.1C121.3,200.12,127.57,190.8,127.57,179.34Z"/><path class="cls-15" d="M104.07,158.14c-8.08,0-14.64,9.49-14.64,21.2s6.56,21.2,14.64,21.2,14.64-9.49,14.64-21.2S112.16,158.14,104.07,158.14Z"/><path class="cls-16" d="M104.07,166.43c-4.92,0-8.91,5.78-8.91,12.91s4,12.91,8.91,12.91,8.92-5.78,8.92-12.91S109,166.43,104.07,166.43Z"/><path class="cls-15" d="M104.07,172.14c-2.74,0-5,3.22-5,7.2s2.23,7.2,5,7.2,5-3.22,5-7.2S106.82,172.14,104.07,172.14Z"/><path class="cls-44" d="M192.11,193.84c2.79-4.26,3.94-9.47,4.94-16.05,2-.85,3.33-1.62,3.76-2.22C201.66,183.23,200.82,188.66,192.11,193.84Z"/><path class="cls-34" d="M165.13,2.06c0,1.1,11.76,2.47,13.16,1.81s.32-2.06-4.61-2.63S165.13,1,165.13,2.06Z"/><path class="cls-34" d="M187.32,6.6c-.82,1.26,2.84,4.26,3.31,6.89s2.61.9,1.55-2S188.21,5.23,187.32,6.6Z"/><path class="cls-45" d="M130.06,73.51c-.9,2.69.85,10.68,4.18,14.74s4.56,1.36,3.7,0a49.91,49.91,0,0,1-4-8.28C132.4,76.05,130.43,72.37,130.06,73.51Z"/><path class="cls-34" d="M196.37,55c1.52,2.82,3.82,18.71,1.6,23.52,0,0-1.6.87-1.23-3.7a58.57,58.57,0,0,0-.37-13.19C195.75,57.58,195.57,53.53,196.37,55Z"/><path class="cls-46" d="M186.33,81.17a30.43,30.43,0,0,1-12.52,3.54c-12.7,1-22.57-2.35-22.83-14.34-.11-4.91,2.54-8.22,6.17-10.47C160.61,66.3,169.57,79.21,186.33,81.17Z"/><path class="cls-47" d="M140.52,144.5c-1.4,5.67,3.37,8.14,13.83,8.63s34.83-.74,34.85-4.68,2.22-6.91-12.57-6.91S141.55,140.31,140.52,144.5Z"/><g class="cls-48"><path class="cls-49" d="M168.77,18.58a5.74,5.74,0,1,1,5.73,5.74A5.74,5.74,0,0,1,168.77,18.58Z"/></g><g class="cls-50"><path class="cls-51" d="M149.36,21.09a5.74,5.74,0,1,1,5.74,5.74A5.74,5.74,0,0,1,149.36,21.09Z"/></g><path class="cls-52" d="M203.06,87.93c-.28-2-6-1-5.95.6C197.17,89.76,203.34,90,203.06,87.93Z"/><path class="cls-53" d="M212.45,207.62a5.08,5.08,0,0,1-1.08,0,2.68,2.68,0,0,1-2.47-1.15s-3.29-29.72-5.24-46.24c-1.92-16.26-6.41-70-6.55-71.71.09.55,1.41.89,2.78.89,1.63,0,3.32-.44,3.17-1.53l12.05,118S215.29,207.26,212.45,207.62Z"/><path class="cls-15" d="M208.75,110.82c-.32.28-12.82,1.45-12.82,1.45a.35.35,0,0,0-.14.06l-.17-.06a1.63,1.63,0,0,1-.77-.82c-.43-.88-.39-2.11.2-2.34,0,0,5.94-1.41,8.61-1.72s4.42-.61,4.79.25a6.26,6.26,0,0,1,.36,1.41A3,3,0,0,1,208.75,110.82Z"/><path class="cls-54" d="M208.75,110.82c-.32.28-12.82,1.45-12.82,1.45a.35.35,0,0,0-.14.06l-.17-.06a1.63,1.63,0,0,1-.77-.82,43,43,0,0,0,7.38-.64,29,29,0,0,0,6.58-1.76A3,3,0,0,1,208.75,110.82Z"/><path class="cls-55" d="M209.38,114.57a1,1,0,0,1-.45.19c-.23-1.08-12.64.4-12.64.4s-.07,0-.09.14a.82.82,0,0,1-.23-.14,1.8,1.8,0,0,1-.46-.77c-.26-.79-.13-1.8.28-2.06a.35.35,0,0,1,.14-.06s12.5-1.17,12.82-1.45.46,1,.61,2A4,4,0,0,1,209.38,114.57Z"/><path class="cls-56" d="M209.38,114.57a1,1,0,0,1-.45.19c-.23-1.08-12.64.4-12.64.4s-.07,0-.09.14a.82.82,0,0,1-.23-.14,1.8,1.8,0,0,1-.46-.77c1.71,0,4.48-.27,8.15-.62a35.71,35.71,0,0,0,5.7-.94A4,4,0,0,1,209.38,114.57Z"/><path class="cls-15" d="M209.46,118.12l-12.74.24a1.29,1.29,0,0,1-.36-.67,6.06,6.06,0,0,1-.16-2.39c0-.09.05-.14.09-.14s12.41-1.48,12.64-.4c.12.57.26,1.45.37,2.16Z"/><path class="cls-57" d="M209.46,118.12l-12.74.24a1.29,1.29,0,0,1-.36-.67,56,56,0,0,0,7.49.06,31.15,31.15,0,0,0,5.45-.83Z"/><path class="cls-55" d="M209.46,118.12v3.2c-3.43,1.48-11.55.12-12.29-.24a1.29,1.29,0,0,1-.47-1,7.52,7.52,0,0,1,0-1.67Z"/><path class="cls-58" d="M209.46,120.33v1c-3.43,1.48-11.55.12-12.29-.24a1.29,1.29,0,0,1-.47-1,26.82,26.82,0,0,0,6.51.77A30.51,30.51,0,0,0,209.46,120.33Z"/><path class="cls-9" d="M211.37,207.67a2.68,2.68,0,0,1-2.47-1.15s-3.29-29.72-5.24-46.24c-1.92-16.26-6.41-70-6.55-71.71.09.55,1.41.89,2.78.89,0,7.5,1.25,20.68,2.53,38.18C203.88,147.6,209.83,196.46,211.37,207.67Z"/><path class="cls-59" d="M130.22,45.38l-3.93.08s-1-1.91-2.56-4.9a15.32,15.32,0,0,0,4-.37C129.2,43.28,130.22,45.38,130.22,45.38Z"/><path class="cls-60" d="M206.89,55.67l-1.38,4.07c-3.46,10.23-6.72,19.88-7.15,27A1.75,1.75,0,0,0,200,88.57h.1A1.72,1.72,0,0,0,201.81,87c.39-6.66,3.59-16.1,7-26.11.72-2.13,1.45-4.27,2.15-6.4A34.72,34.72,0,0,1,206.89,55.67Z"/><path class="cls-55" d="M211.41,130.14a3.52,3.52,0,0,1-.42,1.93,1.38,1.38,0,0,1-1.06.72c-1.23.12-9.31-.8-11.65-2.65a16.92,16.92,0,0,0-.78-1.72,5.66,5.66,0,0,0-1.21-1.72,3.25,3.25,0,0,1,3.16-.5,44.92,44.92,0,0,0,8.14,2.09C210.86,128.78,211.35,129.22,211.41,130.14Z"/><path class="cls-61" d="M211,132.07a1.38,1.38,0,0,1-1.06.72c-1.23.12-9.31-.8-11.65-2.65a16.92,16.92,0,0,0-.78-1.72,16.64,16.64,0,0,0,6.16,2.71A31,31,0,0,0,211,132.07Z"/><path class="cls-15" d="M211.68,135.94a1.34,1.34,0,0,1-.27.55c-.48.49-1.6.8-5.73,0a27,27,0,0,1-7.33-2.63l0-1.2-.05-2.52a24.25,24.25,0,0,0,4,1.58c2.51.79,7.19,1.08,8.54,1.47C211.86,133.48,211.93,135,211.68,135.94Z"/><path class="cls-62" d="M211.68,135.94a1.34,1.34,0,0,1-.27.55c-.48.49-1.6.8-5.73,0a27,27,0,0,1-7.33-2.63l0-1.2a27.68,27.68,0,0,0,7.25,2.72A26.24,26.24,0,0,0,211.68,135.94Z"/><path class="cls-55" d="M210.48,139.38a.81.81,0,0,1-.19.29c-.76.91-3.06,1.21-7.21.15-4.55-1.18-6.36-3.16-6.36-3.16a8.32,8.32,0,0,0,.46-.75c.53-1,1.17-2.35,1.17-2.35s3.75,1.45,7.76,2.62S211,138.28,210.48,139.38Z"/><path class="cls-63" d="M210.29,139.67c-.76.91-3.06,1.21-7.21.15-4.55-1.18-6.36-3.16-6.36-3.16a8.32,8.32,0,0,0,.46-.75C199.06,137.52,203.59,139.82,210.29,139.67Z"/><path class="cls-15" d="M207.59,142.9a2.62,2.62,0,0,1-.68,1c-1.14,1-3,.15-5.18-.64-3.45-1.27-7.16-5.71-7.16-5.71l.76-.33,1.39-.61a30.27,30.27,0,0,0,5.93,3C206.8,141.41,207.93,142,207.59,142.9Z"/><path class="cls-64" d="M206.91,144c-1.14,1-3,.15-5.18-.64-3.45-1.27-7.16-5.71-7.16-5.71l.76-.33a20.2,20.2,0,0,0,6.95,5.41A22.24,22.24,0,0,0,206.91,144Z"/><path class="cls-65" d="M196.07,137.06c-3,1.44-9.26,1.75-23.13-3.87-14.54-5.91-22.19-10.72-24.31-12.53a3.29,3.29,0,0,1-1.26-1.61l.34-.1c1.6-.58,3.2-2.34,4.65-4.19.87-1.09,1.68-2.22,2.42-3.14,2-2.46,1.86-3.76,1.83-4.43a2.25,2.25,0,0,1,.84-.24c1.11-.08,9,5.85,17.3,10.26s17.75,6.09,21.32,9.28a7.53,7.53,0,0,1,2.42,4.74C198.79,133.75,197.86,136.21,196.07,137.06Z"/><path class="cls-9" d="M196.07,137.06c-3,1.44-9.26,1.75-23.13-3.87-14.54-5.91-22.19-10.72-24.31-12.53a3.29,3.29,0,0,1-1.26-1.61l.34-.1c1.6-.58,3.2-2.34,4.65-4.19,2.78,6.32,8.83,12.12,20.51,15.38,10.64,3,21,2.53,25.62,1.09C198.79,133.75,197.86,136.21,196.07,137.06Z"/><path class="cls-34" d="M164.47,115.16c-1.26,2.42,5,5.09,10.61,7.29s4.27-.79-.54-3.3S165.36,113.43,164.47,115.16Z"/><g class="cls-66"><path class="cls-67" d="M280.12,200.54c0,7.41-62.71,13.43-140.06,13.43S0,208,0,200.54s62.71-13.43,140.06-13.43S280.12,193.12,280.12,200.54Z"/><path class="cls-68" d="M279.06,200.54c0,7.36-62.23,13.33-139,13.33s-139-6-139-13.33,62.23-13.33,139-13.33S279.06,193.17,279.06,200.54Z"/><path class="cls-69" d="M278,200.54c0,7.3-61.76,13.22-137.94,13.22S2.12,207.84,2.12,200.54s61.76-13.23,137.94-13.23S278,193.23,278,200.54Z"/><path class="cls-70" d="M277,200.54c0,7.25-61.29,13.12-136.89,13.12S3.18,207.79,3.18,200.54s61.28-13.13,136.88-13.13S277,193.29,277,200.54Z"/><path class="cls-71" d="M275.89,200.54c0,7.19-60.82,13-135.83,13s-135.83-5.83-135.83-13,60.81-13,135.83-13S275.89,193.34,275.89,200.54Z"/><path class="cls-72" d="M274.83,200.54c0,7.13-60.34,12.92-134.77,12.92S5.29,207.67,5.29,200.54s60.34-12.93,134.77-12.93S274.83,193.4,274.83,200.54Z"/><path class="cls-73" d="M273.77,200.54c0,7.08-59.87,12.82-133.71,12.82S6.35,207.62,6.35,200.54s59.86-12.82,133.71-12.82S273.77,193.45,273.77,200.54Z"/><path class="cls-74" d="M272.71,200.54c0,7-59.39,12.72-132.65,12.72S7.41,207.56,7.41,200.54s59.39-12.72,132.65-12.72S272.71,193.51,272.71,200.54Z"/><path class="cls-75" d="M271.65,200.54c0,7-58.91,12.62-131.59,12.62S8.47,207.51,8.47,200.54s58.91-12.62,131.59-12.62S271.65,193.57,271.65,200.54Z"/><path class="cls-76" d="M270.59,200.54c0,6.91-58.44,12.51-130.53,12.51S9.53,207.45,9.53,200.54,68,188,140.06,188,270.59,193.62,270.59,200.54Z"/><path class="cls-77" d="M269.53,200.54c0,6.85-58,12.41-129.47,12.41S10.59,207.39,10.59,200.54s58-12.42,129.47-12.42S269.53,193.68,269.53,200.54Z"/><path class="cls-78" d="M268.48,200.54c0,6.8-57.5,12.31-128.42,12.31S11.65,207.34,11.65,200.54s57.49-12.32,128.41-12.32S268.48,193.74,268.48,200.54Z"/><path class="cls-79" d="M267.42,200.54c0,6.74-57,12.21-127.36,12.21S12.7,207.28,12.7,200.54s57-12.21,127.36-12.21S267.42,193.79,267.42,200.54Z"/><path class="cls-80" d="M266.36,200.54c0,6.69-56.55,12.11-126.3,12.11s-126.3-5.42-126.3-12.11,56.55-12.11,126.3-12.11S266.36,193.85,266.36,200.54Z"/><path class="cls-81" d="M265.3,200.54c0,6.63-56.07,12-125.24,12s-125.24-5.38-125.24-12,56.07-12,125.24-12S265.3,193.9,265.3,200.54Z"/><path class="cls-82" d="M264.24,200.54c0,6.57-55.6,11.9-124.18,11.9s-124.18-5.33-124.18-11.9,55.6-11.91,124.18-11.91S264.24,194,264.24,200.54Z"/><path class="cls-83" d="M263.18,200.54c0,6.52-55.12,11.8-123.12,11.8s-123.12-5.28-123.12-11.8,55.12-11.81,123.12-11.81S263.18,194,263.18,200.54Z"/><path class="cls-84" d="M262.12,200.54c0,6.46-54.65,11.7-122.06,11.7S18,207,18,200.54s54.65-11.71,122.06-11.71S262.12,194.07,262.12,200.54Z"/><path class="cls-85" d="M261.06,200.54c0,6.41-54.17,11.6-121,11.6s-121-5.19-121-11.6,54.17-11.61,121-11.61S261.06,194.13,261.06,200.54Z"/><path class="cls-86" d="M260,200.54c0,6.35-53.71,11.5-119.95,11.5s-119.94-5.15-119.94-11.5S73.82,189,140.06,189,260,194.18,260,200.54Z"/><path class="cls-87" d="M259,200.54c0,6.29-53.23,11.4-118.89,11.4s-118.89-5.11-118.89-11.4,53.23-11.4,118.89-11.4S259,194.24,259,200.54Z"/><path class="cls-88" d="M257.89,200.54c0,6.24-52.76,11.3-117.83,11.3s-117.83-5.06-117.83-11.3,52.75-11.3,117.83-11.3S257.89,194.3,257.89,200.54Z"/><path class="cls-89" d="M256.83,200.54c0,6.18-52.28,11.19-116.77,11.19s-116.77-5-116.77-11.19,52.28-11.2,116.77-11.2S256.83,194.35,256.83,200.54Z"/><path class="cls-90" d="M255.77,200.54c0,6.12-51.81,11.09-115.71,11.09s-115.71-5-115.71-11.09,51.8-11.1,115.71-11.1S255.77,194.41,255.77,200.54Z"/><path class="cls-91" d="M254.71,200.54c0,6.07-51.33,11-114.65,11s-114.65-4.92-114.65-11,51.33-11,114.65-11S254.71,194.46,254.71,200.54Z"/><path class="cls-92" d="M253.65,200.54c0,6-50.86,10.89-113.59,10.89S26.47,206.55,26.47,200.54s50.85-10.9,113.59-10.9S253.65,194.52,253.65,200.54Z"/><path class="cls-93" d="M252.6,200.54c0,6-50.39,10.79-112.54,10.79S27.53,206.5,27.53,200.54s50.38-10.79,112.53-10.79S252.6,194.58,252.6,200.54Z"/><path class="cls-94" d="M251.54,200.54c0,5.9-49.91,10.69-111.48,10.69S28.58,206.44,28.58,200.54s49.91-10.69,111.48-10.69S251.54,194.63,251.54,200.54Z"/><path class="cls-95" d="M250.48,200.54c0,5.84-49.44,10.59-110.42,10.59S29.64,206.38,29.64,200.54,79.08,190,140.06,190,250.48,194.69,250.48,200.54Z"/><path class="cls-96" d="M249.42,200.54c0,5.79-49,10.48-109.36,10.48S30.7,206.33,30.7,200.54s49-10.49,109.36-10.49S249.42,194.74,249.42,200.54Z"/><path class="cls-97" d="M248.36,200.54c0,5.73-48.49,10.38-108.3,10.38s-108.3-4.65-108.3-10.38,48.49-10.39,108.3-10.39S248.36,194.8,248.36,200.54Z"/><path class="cls-98" d="M247.3,200.54c0,5.68-48,10.28-107.24,10.28s-107.24-4.6-107.24-10.28,48-10.29,107.24-10.29S247.3,194.86,247.3,200.54Z"/><path class="cls-99" d="M246.24,200.54c0,5.62-47.54,10.18-106.18,10.18S33.88,206.16,33.88,200.54s47.54-10.18,106.18-10.18S246.24,194.91,246.24,200.54Z"/><path class="cls-100" d="M245.18,200.54c0,5.56-47.06,10.08-105.12,10.08S34.94,206.1,34.94,200.54,82,190.46,140.06,190.46,245.18,195,245.18,200.54Z"/><path class="cls-101" d="M244.13,200.54c0,5.51-46.6,10-104.07,10S36,206.05,36,200.54s46.59-10,104.06-10S244.13,195,244.13,200.54Z"/><path class="cls-102" d="M243.07,200.54c0,5.45-46.12,9.87-103,9.87s-103-4.42-103-9.87,46.12-9.88,103-9.88S243.07,195.08,243.07,200.54Z"/><path class="cls-103" d="M242,200.54c0,5.4-45.65,9.77-101.95,9.77s-101.95-4.37-101.95-9.77,45.64-9.78,102-9.78S242,195.14,242,200.54Z"/><path class="cls-104" d="M241,200.54c0,5.34-45.17,9.67-100.89,9.67s-100.89-4.33-100.89-9.67,45.17-9.68,100.89-9.68S241,195.19,241,200.54Z"/><path class="cls-105" d="M239.89,200.54c0,5.28-44.7,9.57-99.83,9.57s-99.83-4.29-99.83-9.57S84.92,191,140.06,191,239.89,195.25,239.89,200.54Z"/><path class="cls-106" d="M238.83,200.54c0,5.23-44.22,9.47-98.77,9.47s-98.77-4.24-98.77-9.47,44.22-9.47,98.77-9.47S238.83,195.31,238.83,200.54Z"/><path class="cls-107" d="M237.77,200.54c0,5.17-43.75,9.37-97.71,9.37s-97.71-4.2-97.71-9.37,43.74-9.37,97.71-9.37S237.77,195.36,237.77,200.54Z"/><path class="cls-108" d="M236.71,200.54c0,5.12-43.27,9.27-96.65,9.27s-96.65-4.15-96.65-9.27,43.27-9.27,96.65-9.27S236.71,195.42,236.71,200.54Z"/><path class="cls-109" d="M235.66,200.54c0,5.06-42.81,9.16-95.6,9.16s-95.6-4.1-95.6-9.16,42.8-9.17,95.6-9.17S235.66,195.47,235.66,200.54Z"/><path class="cls-110" d="M234.6,200.54c0,5-42.33,9.06-94.54,9.06s-94.54-4.06-94.54-9.06,42.33-9.07,94.54-9.07S234.6,195.53,234.6,200.54Z"/><path class="cls-111" d="M233.54,200.54c0,5-41.86,9-93.48,9s-93.48-4-93.48-9,41.85-9,93.48-9S233.54,195.59,233.54,200.54Z"/><path class="cls-112" d="M232.48,200.54c0,4.89-41.38,8.86-92.42,8.86s-92.42-4-92.42-8.86,41.38-8.86,92.42-8.86S232.48,195.64,232.48,200.54Z"/><path class="cls-113" d="M231.42,200.54c0,4.84-40.9,8.76-91.36,8.76s-91.36-3.92-91.36-8.76,40.9-8.76,91.36-8.76S231.42,195.7,231.42,200.54Z"/><path class="cls-114" d="M230.36,200.54c0,4.78-40.43,8.66-90.3,8.66s-90.3-3.88-90.3-8.66,40.43-8.66,90.3-8.66S230.36,195.75,230.36,200.54Z"/><path class="cls-115" d="M229.3,200.54c0,4.72-40,8.56-89.24,8.56s-89.24-3.84-89.24-8.56S90.77,192,140.06,192,229.3,195.81,229.3,200.54Z"/><path class="cls-116" d="M228.24,200.54c0,4.67-39.48,8.45-88.18,8.45s-88.18-3.78-88.18-8.45,39.48-8.46,88.18-8.46S228.24,195.87,228.24,200.54Z"/><path class="cls-117" d="M227.19,200.54c0,4.61-39,8.35-87.13,8.35s-87.13-3.74-87.13-8.35,39-8.36,87.13-8.36S227.19,195.92,227.19,200.54Z"/><path class="cls-118" d="M226.13,200.54c0,4.56-38.54,8.25-86.07,8.25S54,205.1,54,200.54s38.54-8.26,86.07-8.26S226.13,196,226.13,200.54Z"/><path class="cls-119" d="M225.07,200.54c0,4.5-38.06,8.15-85,8.15s-85-3.65-85-8.15,38.06-8.15,85-8.15S225.07,196,225.07,200.54Z"/><path class="cls-120" d="M224,200.54c0,4.44-37.59,8.05-83.95,8.05S56.11,205,56.11,200.54s37.58-8,84-8S224,196.09,224,200.54Z"/><path class="cls-121" d="M223,200.54c0,4.39-37.11,8-82.89,8s-82.89-3.56-82.89-8,37.11-7.95,82.89-7.95S223,196.15,223,200.54Z"/><path class="cls-122" d="M221.89,200.54c0,4.33-36.64,7.85-81.83,7.85s-81.83-3.52-81.83-7.85,36.63-7.85,81.83-7.85S221.89,196.2,221.89,200.54Z"/><path class="cls-123" d="M220.83,200.54c0,4.27-36.16,7.74-80.77,7.74s-80.77-3.47-80.77-7.74,36.16-7.75,80.77-7.75S220.83,196.26,220.83,200.54Z"/><path class="cls-124" d="M219.77,200.54c0,4.22-35.69,7.64-79.71,7.64s-79.71-3.42-79.71-7.64,35.68-7.65,79.71-7.65S219.77,196.31,219.77,200.54Z"/><path class="cls-125" d="M218.72,200.54c0,4.16-35.22,7.54-78.66,7.54S61.4,204.7,61.4,200.54,96.62,193,140.06,193,218.72,196.37,218.72,200.54Z"/><path class="cls-126" d="M217.66,200.54c0,4.11-34.75,7.44-77.6,7.44s-77.6-3.33-77.6-7.44,34.74-7.44,77.6-7.44S217.66,196.43,217.66,200.54Z"/><path class="cls-127" d="M216.6,200.54c0,4.05-34.27,7.34-76.54,7.34s-76.54-3.29-76.54-7.34,34.27-7.34,76.54-7.34S216.6,196.48,216.6,200.54Z"/><path class="cls-128" d="M215.54,200.54c0,4-33.8,7.24-75.48,7.24s-75.48-3.25-75.48-7.24,33.79-7.24,75.48-7.24S215.54,196.54,215.54,200.54Z"/><path class="cls-129" d="M214.48,200.54c0,3.94-33.32,7.13-74.42,7.13s-74.42-3.19-74.42-7.13S99,193.4,140.06,193.4,214.48,196.6,214.48,200.54Z"/><path class="cls-130" d="M213.42,200.54c0,3.88-32.85,7-73.36,7s-73.36-3.15-73.36-7,32.84-7,73.36-7S213.42,196.65,213.42,200.54Z"/><path class="cls-131" d="M212.36,200.54c0,3.83-32.37,6.93-72.3,6.93s-72.3-3.1-72.3-6.93,32.37-6.94,72.3-6.94S212.36,196.71,212.36,200.54Z"/><path class="cls-132" d="M211.3,200.54c0,3.77-31.89,6.83-71.24,6.83s-71.25-3.06-71.25-6.83,31.9-6.83,71.25-6.83S211.3,196.76,211.3,200.54Z"/><path class="cls-133" d="M210.25,200.54c0,3.71-31.43,6.73-70.19,6.73s-70.19-3-70.19-6.73,31.43-6.73,70.19-6.73S210.25,196.82,210.25,200.54Z"/><path class="cls-134" d="M209.19,200.54c0,3.66-30.95,6.63-69.13,6.63s-69.13-3-69.13-6.63,30.95-6.63,69.13-6.63S209.19,196.88,209.19,200.54Z"/><path class="cls-135" d="M208.13,200.54c0,3.6-30.48,6.53-68.07,6.53S72,204.14,72,200.54,102.46,194,140.06,194,208.13,196.93,208.13,200.54Z"/><path class="cls-136" d="M207.07,200.54c0,3.55-30,6.42-67,6.42s-67-2.87-67-6.42,30-6.43,67-6.43S207.07,197,207.07,200.54Z"/><path class="cls-137" d="M206,200.54c0,3.49-29.53,6.32-65.95,6.32S74.11,204,74.11,200.54s29.52-6.33,66-6.33S206,197,206,200.54Z"/><path class="cls-138" d="M205,200.54c0,3.43-29,6.22-64.89,6.22S75.17,204,75.17,200.54s29.05-6.22,64.89-6.22S205,197.1,205,200.54Z"/><path class="cls-139" d="M203.89,200.54c0,3.38-28.58,6.12-63.83,6.12s-63.83-2.74-63.83-6.12,28.57-6.12,63.83-6.12S203.89,197.16,203.89,200.54Z"/><path class="cls-140" d="M202.83,200.54c0,3.32-28.1,6-62.77,6s-62.78-2.7-62.78-6,28.11-6,62.78-6S202.83,197.21,202.83,200.54Z"/><path class="cls-141" d="M201.78,200.54c0,3.27-27.64,5.92-61.72,5.92s-61.72-2.65-61.72-5.92,27.63-5.92,61.72-5.92S201.78,197.27,201.78,200.54Z"/><path class="cls-142" d="M200.72,200.54c0,3.21-27.16,5.82-60.66,5.82s-60.66-2.61-60.66-5.82,27.16-5.82,60.66-5.82S200.72,197.32,200.72,200.54Z"/><path class="cls-143" d="M199.66,200.54c0,3.15-26.69,5.71-59.6,5.71s-59.6-2.56-59.6-5.71,26.68-5.72,59.6-5.72S199.66,197.38,199.66,200.54Z"/><path class="cls-144" d="M198.6,200.54c0,3.1-26.21,5.61-58.54,5.61s-58.54-2.51-58.54-5.61,26.21-5.62,58.54-5.62S198.6,197.44,198.6,200.54Z"/><path class="cls-145" d="M197.54,200.54c0,3-25.74,5.51-57.48,5.51s-57.48-2.47-57.48-5.51S108.31,195,140.06,195,197.54,197.49,197.54,200.54Z"/><path class="cls-146" d="M196.48,200.54c0,3-25.26,5.41-56.42,5.41s-56.42-2.42-56.42-5.41,25.26-5.41,56.42-5.41S196.48,197.55,196.48,200.54Z"/><path class="cls-147" d="M195.42,200.54c0,2.93-24.79,5.31-55.36,5.31s-55.37-2.38-55.37-5.31,24.79-5.31,55.37-5.31S195.42,197.6,195.42,200.54Z"/><path class="cls-148" d="M194.36,200.54c0,2.87-24.31,5.21-54.3,5.21s-54.31-2.34-54.31-5.21,24.32-5.21,54.31-5.21S194.36,197.66,194.36,200.54Z"/><path class="cls-149" d="M193.31,200.54c0,2.82-23.85,5.1-53.25,5.1s-53.25-2.28-53.25-5.1,23.84-5.11,53.25-5.11S193.31,197.72,193.31,200.54Z"/><path class="cls-150" d="M192.25,200.54c0,2.76-23.37,5-52.19,5s-52.19-2.24-52.19-5,23.37-5,52.19-5S192.25,197.77,192.25,200.54Z"/><path class="cls-151" d="M191.19,200.54c0,2.71-22.89,4.9-51.13,4.9s-51.13-2.19-51.13-4.9,22.89-4.91,51.13-4.91S191.19,197.83,191.19,200.54Z"/><path class="cls-152" d="M190.13,200.54c0,2.65-22.42,4.8-50.07,4.8S90,203.19,90,200.54s22.41-4.8,50.07-4.8S190.13,197.88,190.13,200.54Z"/><path class="cls-153" d="M189.07,200.54c0,2.59-21.94,4.7-49,4.7s-49-2.11-49-4.7,21.94-4.7,49-4.7S189.07,197.94,189.07,200.54Z"/><path class="cls-154" d="M188,200.54c0,2.54-21.47,4.6-47.95,4.6s-47.95-2.06-47.95-4.6,21.46-4.6,48-4.6S188,198,188,200.54Z"/><path class="cls-155" d="M187,200.54c0,2.48-21,4.5-46.89,4.5s-46.9-2-46.9-4.5,21-4.5,46.9-4.5S187,198.05,187,200.54Z"/><path class="cls-156" d="M185.9,200.54c0,2.42-20.53,4.39-45.84,4.39s-45.84-2-45.84-4.39,20.52-4.4,45.84-4.4S185.9,198.11,185.9,200.54Z"/><path class="cls-157" d="M184.84,200.54c0,2.37-20.05,4.29-44.78,4.29s-44.78-1.92-44.78-4.29,20-4.3,44.78-4.3S184.84,198.17,184.84,200.54Z"/><path class="cls-158" d="M183.78,200.54c0,2.31-19.58,4.19-43.72,4.19s-43.72-1.88-43.72-4.19,19.57-4.19,43.72-4.19S183.78,198.22,183.78,200.54Z"/><path class="cls-159" d="M182.72,200.54c0,2.26-19.1,4.09-42.66,4.09S97.4,202.8,97.4,200.54s19.1-4.09,42.66-4.09S182.72,198.28,182.72,200.54Z"/><path class="cls-160" d="M181.66,200.54c0,2.2-18.63,4-41.6,4s-41.6-1.79-41.6-4,18.62-4,41.6-4S181.66,198.33,181.66,200.54Z"/><path class="cls-161" d="M180.6,200.54c0,2.14-18.15,3.89-40.54,3.89s-40.54-1.75-40.54-3.89,18.15-3.89,40.54-3.89S180.6,198.39,180.6,200.54Z"/><path class="cls-162" d="M179.54,200.54c0,2.09-17.68,3.79-39.48,3.79s-39.48-1.7-39.48-3.79,17.67-3.79,39.48-3.79S179.54,198.45,179.54,200.54Z"/><path class="cls-163" d="M178.48,200.54c0,2-17.2,3.68-38.42,3.68s-38.43-1.65-38.43-3.68,17.21-3.69,38.43-3.69S178.48,198.5,178.48,200.54Z"/><path class="cls-164" d="M177.43,200.54c0,2-16.74,3.58-37.37,3.58s-37.37-1.6-37.37-3.58S119.42,197,140.06,197,177.43,198.56,177.43,200.54Z"/><path class="cls-165" d="M176.37,200.54c0,1.92-16.26,3.48-36.31,3.48s-36.31-1.56-36.31-3.48,16.26-3.48,36.31-3.48S176.37,198.61,176.37,200.54Z"/><path class="cls-166" d="M175.31,200.54c0,1.86-15.79,3.38-35.25,3.38s-35.25-1.52-35.25-3.38,15.78-3.38,35.25-3.38S175.31,198.67,175.31,200.54Z"/><path class="cls-167" d="M174.25,200.54c0,1.81-15.31,3.28-34.19,3.28s-34.19-1.47-34.19-3.28,15.3-3.28,34.19-3.28S174.25,198.73,174.25,200.54Z"/><path d="M173.19,200.54c0,1.75-14.84,3.18-33.13,3.18s-33.13-1.43-33.13-3.18,14.83-3.18,33.13-3.18S173.19,198.78,173.19,200.54Z"/></g></g></g></g></svg>