<svg xmlns="http://www.w3.org/2000/svg" xmlns:xlink="http://www.w3.org/1999/xlink" viewBox="0 0 197.83 116.51"><defs><style>.cls-1{mask:url(#mask);}.cls-110,.cls-118,.cls-119,.cls-161,.cls-169,.cls-170,.cls-2,.cls-4,.cls-7{mix-blend-mode:multiply;}.cls-2{fill:url(#radial-gradient);}.cls-3{mask:url(#mask-2);}.cls-4{fill:url(#radial-gradient-2);}.cls-5{fill:none;}.cls-6{isolation:isolate;}.cls-7{opacity:0.2;}.cls-8{fill:#fff;opacity:0;}.cls-9{fill:#fcfcfc;opacity:0.01;}.cls-10{fill:#fafafa;opacity:0.02;}.cls-11{fill:#f7f7f7;opacity:0.03;}.cls-12{fill:#f5f5f5;opacity:0.04;}.cls-13{fill:#f2f2f2;opacity:0.05;}.cls-14{fill:#f0f0f0;opacity:0.06;}.cls-15{fill:#ededed;opacity:0.07;}.cls-16{fill:#ebebeb;opacity:0.08;}.cls-17{fill:#e8e8e8;opacity:0.09;}.cls-18{fill:#e6e6e6;opacity:0.1;}.cls-19{fill:#e3e3e3;opacity:0.11;}.cls-20{fill:#e1e1e1;opacity:0.12;}.cls-21{fill:#dedede;opacity:0.13;}.cls-22{fill:#dcdcdc;opacity:0.14;}.cls-23{fill:#d9d9d9;opacity:0.15;}.cls-24{fill:#d7d7d7;opacity:0.16;}.cls-25{fill:#d4d4d4;opacity:0.17;}.cls-26{fill:#d2d2d2;opacity:0.18;}.cls-27{fill:#cfcfcf;opacity:0.19;}.cls-28{fill:#cdcdcd;opacity:0.2;}.cls-29{fill:#cacaca;opacity:0.21;}.cls-30{fill:#c7c7c7;opacity:0.22;}.cls-31{fill:#c5c5c5;opacity:0.23;}.cls-32{fill:#c2c2c2;opacity:0.24;}.cls-33{fill:silver;opacity:0.25;}.cls-34{fill:#bdbdbd;opacity:0.26;}.cls-35{fill:#bbb;opacity:0.27;}.cls-36{fill:#b8b8b8;opacity:0.28;}.cls-37{fill:#b6b6b6;opacity:0.29;}.cls-38{fill:#b3b3b3;opacity:0.3;}.cls-39{fill:#b1b1b1;opacity:0.31;}.cls-40{fill:#aeaeae;opacity:0.32;}.cls-41{fill:#acacac;opacity:0.33;}.cls-42{fill:#a9a9a9;opacity:0.34;}.cls-43{fill:#a7a7a7;opacity:0.35;}.cls-44{fill:#a4a4a4;opacity:0.36;}.cls-45{fill:#a2a2a2;opacity:0.37;}.cls-46{fill:#9f9f9f;opacity:0.38;}.cls-47{fill:#9d9d9d;opacity:0.39;}.cls-48{fill:#9a9a9a;opacity:0.4;}.cls-49{fill:#979797;opacity:0.41;}.cls-50{fill:#959595;opacity:0.42;}.cls-51{fill:#929292;opacity:0.43;}.cls-52{fill:#909090;opacity:0.44;}.cls-53{fill:#8d8d8d;opacity:0.45;}.cls-54{fill:#8b8b8b;opacity:0.46;}.cls-55{fill:#888;opacity:0.47;}.cls-56{fill:#868686;opacity:0.48;}.cls-57{fill:#838383;opacity:0.49;}.cls-58{fill:#818181;opacity:0.5;}.cls-59{fill:#7e7e7e;opacity:0.5;}.cls-60{fill:#7c7c7c;opacity:0.51;}.cls-61{fill:#797979;opacity:0.52;}.cls-62{fill:#777;opacity:0.53;}.cls-63{fill:#747474;opacity:0.54;}.cls-64{fill:#727272;opacity:0.55;}.cls-65{fill:#6f6f6f;opacity:0.56;}.cls-66{fill:#6d6d6d;opacity:0.57;}.cls-67{fill:#6a6a6a;opacity:0.58;}.cls-68{fill:#686868;opacity:0.59;}.cls-69{fill:#656565;opacity:0.6;}.cls-70{fill:#626262;opacity:0.61;}.cls-71{fill:#606060;opacity:0.62;}.cls-72{fill:#5d5d5d;opacity:0.63;}.cls-73{fill:#5b5b5b;opacity:0.64;}.cls-74{fill:#585858;opacity:0.65;}.cls-75{fill:#565656;opacity:0.66;}.cls-76{fill:#535353;opacity:0.67;}.cls-77{fill:#515151;opacity:0.68;}.cls-78{fill:#4e4e4e;opacity:0.69;}.cls-79{fill:#4c4c4c;opacity:0.7;}.cls-80{fill:#494949;opacity:0.71;}.cls-81{fill:#474747;opacity:0.72;}.cls-82{fill:#444;opacity:0.73;}.cls-83{fill:#424242;opacity:0.74;}.cls-84{fill:#3f3f3f;opacity:0.75;}.cls-85{fill:#3d3d3d;opacity:0.76;}.cls-86{fill:#3a3a3a;opacity:0.77;}.cls-87{fill:#383838;opacity:0.78;}.cls-88{fill:#353535;opacity:0.79;}.cls-89{fill:#323232;opacity:0.8;}.cls-90{fill:#303030;opacity:0.81;}.cls-91{fill:#2d2d2d;opacity:0.82;}.cls-92{fill:#2b2b2b;opacity:0.83;}.cls-93{fill:#282828;opacity:0.84;}.cls-94{fill:#262626;opacity:0.85;}.cls-95{fill:#232323;opacity:0.86;}.cls-96{fill:#212121;opacity:0.87;}.cls-97{fill:#1e1e1e;opacity:0.88;}.cls-98{fill:#1c1c1c;opacity:0.89;}.cls-99{fill:#191919;opacity:0.9;}.cls-100{fill:#171717;opacity:0.91;}.cls-101{fill:#141414;opacity:0.92;}.cls-102{fill:#121212;opacity:0.93;}.cls-103{fill:#0f0f0f;opacity:0.94;}.cls-104{fill:#0d0d0d;opacity:0.95;}.cls-105{fill:#0a0a0a;opacity:0.96;}.cls-106{fill:#080808;opacity:0.97;}.cls-107{fill:#050505;opacity:0.98;}.cls-108{fill:#030303;opacity:0.99;}.cls-109{fill:url(#linear-gradient);}.cls-110,.cls-133,.cls-160{fill:#e4edfc;}.cls-110{opacity:0.8;}.cls-111{fill:#97b1e2;}.cls-112{fill:url(#linear-gradient-2);}.cls-113{fill:url(#linear-gradient-3);}.cls-114{fill:url(#linear-gradient-4);}.cls-115,.cls-118,.cls-119,.cls-169,.cls-170,.cls-171{fill:#3126d6;}.cls-116{fill:#3636e8;}.cls-117{fill:#4141f2;}.cls-118{opacity:0.9;}.cls-119,.cls-160{opacity:0.7;}.cls-120{fill:#c9daf2;}.cls-121{fill:url(#linear-gradient-5);}.cls-122{fill:url(#linear-gradient-6);}.cls-123{fill:url(#linear-gradient-7);}.cls-124{fill:url(#linear-gradient-8);}.cls-125{fill:url(#linear-gradient-9);}.cls-126{fill:url(#linear-gradient-10);}.cls-127{fill:url(#linear-gradient-11);}.cls-128{fill:url(#linear-gradient-12);}.cls-129{fill:url(#linear-gradient-13);}.cls-130{fill:url(#linear-gradient-14);}.cls-131{fill:#3d88ee;}.cls-131,.cls-167,.cls-169,.cls-171,.cls-172{opacity:0.5;}.cls-132,.cls-167,.cls-172{fill:#eef5ff;}.cls-134{fill:url(#linear-gradient-15);}.cls-135{fill:url(#linear-gradient-16);}.cls-136{fill:url(#linear-gradient-17);}.cls-137{fill:url(#linear-gradient-18);}.cls-138{clip-path:url(#clip-path);}.cls-139{fill:#1d14c8;}.cls-140{fill:#1e15c9;}.cls-141{fill:#1f16c9;}.cls-142{fill:#2017ca;}.cls-143{fill:#2118cb;}.cls-144{fill:#2219cc;}.cls-145{fill:#231acc;}.cls-146{fill:#241bcd;}.cls-147{fill:#251cce;}.cls-148{fill:#261dcf;}.cls-149{fill:#281dcf;}.cls-150{fill:#291ed0;}.cls-151{fill:#2a1fd1;}.cls-152{fill:#2b20d2;}.cls-153{fill:#2c21d2;}.cls-154{fill:#2d22d3;}.cls-155{fill:#2e23d4;}.cls-156{fill:#2f24d5;}.cls-157{fill:#3025d5;}.cls-158{fill:#ffc062;}.cls-159{fill:url(#linear-gradient-19);}.cls-160,.cls-167,.cls-171{mix-blend-mode:screen;}.cls-161{opacity:0.4;}.cls-162{clip-path:url(#clip-path-2);}.cls-163{mask:url(#mask-3);}.cls-164{fill:url(#radial-gradient-3);}.cls-165{mask:url(#mask-4);}.cls-166{fill:url(#radial-gradient-4);}.cls-168{fill:url(#linear-gradient-20);}.cls-170{opacity:0.3;}.cls-173{filter:url(#luminosity-noclip-4);}.cls-174{filter:url(#luminosity-noclip-3);}.cls-175{filter:url(#luminosity-noclip-2);}.cls-176{filter:url(#luminosity-noclip);}</style><filter id="luminosity-noclip" x="100.05" y="-8099.71" width="8.5" height="32766" filterUnits="userSpaceOnUse" color-interpolation-filters="sRGB"><feFlood flood-color="#fff" result="bg"/><feBlend in="SourceGraphic" in2="bg"/></filter><mask id="mask" x="100.05" y="-8099.71" width="8.5" height="32766" maskUnits="userSpaceOnUse"><g class="cls-176"/></mask><radialGradient id="radial-gradient" cx="104.3" cy="8.35" r="4.25" gradientUnits="userSpaceOnUse"><stop offset="0" stop-color="#fff"/><stop offset="0.2" stop-color="#f7f7f7"/><stop offset="0.52" stop-color="#e1e1e1"/><stop offset="0.91" stop-color="#bdbdbd"/><stop offset="1" stop-color="#b3b3b3"/></radialGradient><filter id="luminosity-noclip-2" x="87.51" y="-8099.71" width="8.5" height="32766" filterUnits="userSpaceOnUse" color-interpolation-filters="sRGB"><feFlood flood-color="#fff" result="bg"/><feBlend in="SourceGraphic" in2="bg"/></filter><mask id="mask-2" x="87.51" y="-8099.71" width="8.5" height="32766" maskUnits="userSpaceOnUse"><g class="cls-175"/></mask><radialGradient id="radial-gradient-2" cx="91.76" cy="8.35" r="4.25" xlink:href="#radial-gradient"/><linearGradient id="linear-gradient" x1="-873.58" y1="81.1" x2="-873.04" y2="104.87" gradientTransform="matrix(-1, 0, 0, 1, -726.6, 0)" gradientUnits="userSpaceOnUse"><stop offset="0" stop-color="#dee4f5"/><stop offset="0.98" stop-color="#d7e2f5"/></linearGradient><linearGradient id="linear-gradient-2" x1="-870.07" y1="81.63" x2="-844.47" y2="81.63" xlink:href="#linear-gradient"/><linearGradient id="linear-gradient-3" x1="-876.98" y1="112.4" x2="-876.12" y2="108.83" gradientTransform="matrix(-1, 0, 0, 1, -726.6, 0)" gradientUnits="userSpaceOnUse"><stop offset="0" stop-color="#3126d6"/><stop offset="1" stop-color="#1d14c8"/></linearGradient><linearGradient id="linear-gradient-4" x1="-871.53" y1="80.04" x2="-868.28" y2="85.55" gradientTransform="matrix(-1, 0, 0, 1, -726.6, 0)" gradientUnits="userSpaceOnUse"><stop offset="0" stop-color="#3126d6"/><stop offset="0.99" stop-color="#0b02b8"/></linearGradient><linearGradient id="linear-gradient-5" x1="50.86" y1="81.61" x2="51.4" y2="105.38" gradientTransform="matrix(1, 0, 0, 1, 0, 0)" xlink:href="#linear-gradient"/><linearGradient id="linear-gradient-6" x1="54.37" y1="82.14" x2="79.97" y2="82.14" gradientTransform="matrix(1, 0, 0, 1, 0, 0)" xlink:href="#linear-gradient"/><linearGradient id="linear-gradient-7" x1="47.45" y1="112.91" x2="48.32" y2="109.34" gradientTransform="matrix(1, 0, 0, 1, 0, 0)" xlink:href="#linear-gradient-3"/><linearGradient id="linear-gradient-8" x1="52.91" y1="80.56" x2="56.15" y2="86.07" gradientTransform="matrix(1, 0, 0, 1, 0, 0)" xlink:href="#linear-gradient-4"/><linearGradient id="linear-gradient-9" x1="97.92" y1="67.29" x2="97.71" y2="23.21" gradientUnits="userSpaceOnUse"><stop offset="0" stop-color="#e7ebf5"/><stop offset="0.98" stop-color="#d7e2f5"/></linearGradient><linearGradient id="linear-gradient-10" x1="98.41" y1="20.81" x2="97.97" y2="45.59" gradientUnits="userSpaceOnUse"><stop offset="0.01" stop-color="#fe2055"/><stop offset="1" stop-color="#fe5e6a"/></linearGradient><linearGradient id="linear-gradient-11" x1="42.69" y1="69.43" x2="43.23" y2="93.2" gradientTransform="matrix(1, 0, 0, 1, 0, 0)" xlink:href="#linear-gradient"/><linearGradient id="linear-gradient-12" x1="46.2" y1="69.95" x2="71.8" y2="69.95" gradientTransform="matrix(1, 0, 0, 1, 0, 0)" xlink:href="#linear-gradient"/><linearGradient id="linear-gradient-13" x1="39.29" y1="100.72" x2="40.15" y2="97.16" gradientTransform="matrix(1, 0, 0, 1, 0, 0)" xlink:href="#linear-gradient-3"/><linearGradient id="linear-gradient-14" x1="44.74" y1="68.37" x2="47.99" y2="73.88" gradientTransform="matrix(1, 0, 0, 1, 0, 0)" xlink:href="#linear-gradient-4"/><linearGradient id="linear-gradient-15" x1="-881.75" y1="68.92" x2="-881.21" y2="92.68" xlink:href="#linear-gradient"/><linearGradient id="linear-gradient-16" x1="-878.24" y1="69.44" x2="-852.64" y2="69.44" xlink:href="#linear-gradient"/><linearGradient id="linear-gradient-17" x1="-885.15" y1="100.21" x2="-884.29" y2="96.64" xlink:href="#linear-gradient-3"/><linearGradient id="linear-gradient-18" x1="-879.69" y1="67.86" x2="-876.45" y2="73.37" xlink:href="#linear-gradient-4"/><clipPath id="clip-path" transform="translate(0 0.94)"><path class="cls-5" d="M110.71,1.82v9.92a3,3,0,0,1-3,3H88.81a3,3,0,0,1-3-3V1.82A3,3,0,0,1,86.28.16,4.27,4.27,0,0,1,87.47,0H109a4.38,4.38,0,0,1,1.19.16A3,3,0,0,1,110.71,1.82Z"/></clipPath><linearGradient id="linear-gradient-19" x1="99" y1="58.26" x2="100.3" y2="80.63" gradientTransform="matrix(1, 0, 0, 1, 0, 0)" xlink:href="#linear-gradient"/><clipPath id="clip-path-2" transform="translate(0 0.94)"><path class="cls-5" d="M110.71,1.82v9.92a3,3,0,0,1-3,3H98.23c2.22-3.68,6.69-11.25,8-14.77H109a4.38,4.38,0,0,1,1.19.16A3,3,0,0,1,110.71,1.82Z"/></clipPath><filter id="luminosity-noclip-3" x="100.05" y="4.11" width="8.5" height="8.5" filterUnits="userSpaceOnUse" color-interpolation-filters="sRGB"><feFlood flood-color="#fff" result="bg"/><feBlend in="SourceGraphic" in2="bg"/></filter><mask id="mask-3" x="100.05" y="5.04" width="8.5" height="8.5" maskUnits="userSpaceOnUse"><g class="cls-174"><g transform="translate(0 0.94)"><g class="cls-1"><path class="cls-2" d="M100.05,8.36a4.25,4.25,0,1,1,4.25,4.24A4.25,4.25,0,0,1,100.05,8.36Z"/></g></g></g></mask><radialGradient id="radial-gradient-3" cx="104.3" cy="8.35" r="4.25" gradientUnits="userSpaceOnUse"><stop offset="0" stop-color="#fe9b6b"/><stop offset="0.1" stop-color="#f6966f"/><stop offset="0.26" stop-color="#e08a7b"/><stop offset="0.45" stop-color="#bb758e"/><stop offset="0.67" stop-color="#8958a8"/><stop offset="0.91" stop-color="#4934c9"/><stop offset="1" stop-color="#3126d6"/></radialGradient><filter id="luminosity-noclip-4" x="87.51" y="4.11" width="8.5" height="8.5" filterUnits="userSpaceOnUse" color-interpolation-filters="sRGB"><feFlood flood-color="#fff" result="bg"/><feBlend in="SourceGraphic" in2="bg"/></filter><mask id="mask-4" x="87.51" y="5.04" width="8.5" height="8.5" maskUnits="userSpaceOnUse"><g class="cls-173"><g transform="translate(0 0.94)"><g class="cls-3"><path class="cls-4" d="M87.51,8.36a4.25,4.25,0,1,1,4.25,4.24A4.25,4.25,0,0,1,87.51,8.36Z"/></g></g></g></mask><radialGradient id="radial-gradient-4" cx="91.76" cy="8.35" r="4.25" xlink:href="#radial-gradient-3"/><linearGradient id="linear-gradient-20" x1="98.25" y1="29.03" x2="98.25" y2="13.9" gradientUnits="userSpaceOnUse"><stop offset="0" stop-color="#3c4cd6"/><stop offset="1" stop-color="#1d14c8"/></linearGradient></defs><g class="cls-6"><g id="Layer_2" data-name="Layer 2"><g id="Layer_1-2" data-name="Layer 1"><g class="cls-7"><path class="cls-8" d="M197.83,106.09c0,5.24-44.28,9.48-98.92,9.48S0,111.33,0,106.09,44.28,96.6,98.91,96.6,197.83,100.85,197.83,106.09Z" transform="translate(0 0.94)"/><path class="cls-9" d="M197.09,106.09c0,5.2-44,9.41-98.18,9.41S.75,111.29.75,106.09s44-9.41,98.16-9.41S197.09,100.89,197.09,106.09Z" transform="translate(0 0.94)"/><path class="cls-10" d="M196.34,106.09c0,5.16-43.62,9.34-97.43,9.34S1.5,111.25,1.5,106.09s43.61-9.34,97.41-9.34S196.34,100.93,196.34,106.09Z" transform="translate(0 0.94)"/><path class="cls-11" d="M195.59,106.09c0,5.12-43.28,9.27-96.68,9.27s-96.67-4.15-96.67-9.27,43.28-9.27,96.67-9.27S195.59,101,195.59,106.09Z" transform="translate(0 0.94)"/><path class="cls-12" d="M194.84,106.09c0,5.08-43,9.2-95.93,9.2S3,111.17,3,106.09s42.95-9.2,95.92-9.2S194.84,101,194.84,106.09Z" transform="translate(0 0.94)"/><path class="cls-13" d="M194.1,106.09c0,5-42.62,9.13-95.19,9.13s-95.17-4.09-95.17-9.13S46.35,97,98.91,97,194.1,101.05,194.1,106.09Z" transform="translate(0 0.94)"/><path class="cls-14" d="M193.35,106.09c0,5-42.28,9-94.44,9s-94.42-4-94.42-9S46.76,97,98.91,97,193.35,101.09,193.35,106.09Z" transform="translate(0 0.94)"/><path class="cls-15" d="M192.6,106.09c0,5-41.94,9-93.69,9s-93.68-4-93.68-9,42-9,93.68-9S192.6,101.13,192.6,106.09Z" transform="translate(0 0.94)"/><path class="cls-16" d="M191.85,106.09c0,4.92-41.61,8.91-92.94,8.91S6,111,6,106.09s41.61-8.91,92.93-8.91S191.85,101.17,191.85,106.09Z" transform="translate(0 0.94)"/><path class="cls-17" d="M191.1,106.09c0,4.88-41.27,8.84-92.19,8.84s-92.18-4-92.18-8.84S48,97.25,98.91,97.25,191.1,101.21,191.1,106.09Z" transform="translate(0 0.94)"/><path class="cls-18" d="M190.36,106.09c0,4.84-40.94,8.77-91.45,8.77s-91.43-3.93-91.43-8.77,40.93-8.77,91.43-8.77S190.36,101.25,190.36,106.09Z" transform="translate(0 0.94)"/><path class="cls-19" d="M189.61,106.09c0,4.8-40.61,8.7-90.7,8.7s-90.69-3.9-90.69-8.7,40.61-8.7,90.69-8.7S189.61,101.29,189.61,106.09Z" transform="translate(0 0.94)"/><path class="cls-20" d="M188.86,106.09c0,4.76-40.27,8.62-90,8.62S9,110.85,9,106.09s40.27-8.63,89.94-8.63S188.86,101.33,188.86,106.09Z" transform="translate(0 0.94)"/><path class="cls-21" d="M188.11,106.09c0,4.72-39.93,8.55-89.2,8.55s-89.19-3.83-89.19-8.55,39.93-8.55,89.19-8.55S188.11,101.37,188.11,106.09Z" transform="translate(0 0.94)"/><path class="cls-22" d="M187.37,106.09c0,4.68-39.61,8.48-88.46,8.48s-88.44-3.8-88.44-8.48,39.6-8.48,88.44-8.48S187.37,101.4,187.37,106.09Z" transform="translate(0 0.94)"/><path class="cls-23" d="M186.62,106.09c0,4.64-39.27,8.41-87.71,8.41s-87.69-3.77-87.69-8.41,39.26-8.41,87.69-8.41S186.62,101.44,186.62,106.09Z" transform="translate(0 0.94)"/><path class="cls-24" d="M185.87,106.09c0,4.6-38.93,8.34-87,8.34S12,110.69,12,106.09s38.93-8.34,86.95-8.34S185.87,101.48,185.87,106.09Z" transform="translate(0 0.94)"/><path class="cls-25" d="M185.12,106.09c0,4.56-38.59,8.27-86.21,8.27s-86.2-3.71-86.2-8.27,38.59-8.27,86.2-8.27S185.12,101.52,185.12,106.09Z" transform="translate(0 0.94)"/><path class="cls-26" d="M184.37,106.09c0,4.52-38.26,8.19-85.46,8.19s-85.45-3.67-85.45-8.19S51.72,97.9,98.91,97.9,184.37,101.56,184.37,106.09Z" transform="translate(0 0.94)"/><path class="cls-27" d="M183.63,106.09c0,4.48-37.93,8.12-84.72,8.12s-84.7-3.64-84.7-8.12S52.13,98,98.91,98,183.63,101.6,183.63,106.09Z" transform="translate(0 0.94)"/><path class="cls-28" d="M182.88,106.09c0,4.45-37.59,8-84,8s-84-3.6-84-8,37.59-8,84-8S182.88,101.64,182.88,106.09Z" transform="translate(0 0.94)"/><path class="cls-29" d="M182.13,106.09c0,4.41-37.26,8-83.22,8s-83.21-3.57-83.21-8,37.26-8,83.21-8S182.13,101.68,182.13,106.09Z" transform="translate(0 0.94)"/><path class="cls-30" d="M181.38,106.09c0,4.37-36.92,7.91-82.47,7.91s-82.46-3.54-82.46-7.91,36.92-7.91,82.46-7.91S181.38,101.72,181.38,106.09Z" transform="translate(0 0.94)"/><path class="cls-31" d="M180.64,106.09c0,4.33-36.59,7.84-81.73,7.84s-81.71-3.51-81.71-7.84,36.58-7.84,81.71-7.84S180.64,101.76,180.64,106.09Z" transform="translate(0 0.94)"/><path class="cls-32" d="M179.89,106.09c0,4.29-36.25,7.76-81,7.76s-81-3.47-81-7.76,36.26-7.76,81-7.76S179.89,101.8,179.89,106.09Z" transform="translate(0 0.94)"/><path class="cls-33" d="M179.14,106.09c0,4.25-35.92,7.69-80.23,7.69s-80.22-3.44-80.22-7.69S54.61,98.4,98.91,98.4,179.14,101.84,179.14,106.09Z" transform="translate(0 0.94)"/><path class="cls-34" d="M178.39,106.09c0,4.21-35.58,7.62-79.48,7.62s-79.47-3.41-79.47-7.62S55,98.47,98.91,98.47,178.39,101.88,178.39,106.09Z" transform="translate(0 0.94)"/><path class="cls-35" d="M177.65,106.09c0,4.17-35.25,7.55-78.74,7.55s-78.72-3.38-78.72-7.55,35.24-7.55,78.72-7.55S177.65,101.92,177.65,106.09Z" transform="translate(0 0.94)"/><path class="cls-36" d="M176.9,106.09c0,4.13-34.92,7.48-78,7.48s-78-3.35-78-7.48,34.91-7.48,78-7.48S176.9,102,176.9,106.09Z" transform="translate(0 0.94)"/><path class="cls-37" d="M176.15,106.09c0,4.09-34.58,7.41-77.24,7.41s-77.23-3.32-77.23-7.41,34.58-7.41,77.23-7.41S176.15,102,176.15,106.09Z" transform="translate(0 0.94)"/><path class="cls-38" d="M175.4,106.09c0,4-34.24,7.33-76.49,7.33s-76.48-3.28-76.48-7.33,34.24-7.33,76.48-7.33S175.4,102,175.4,106.09Z" transform="translate(0 0.94)"/><path class="cls-39" d="M174.65,106.09c0,4-33.91,7.26-75.74,7.26s-75.73-3.25-75.73-7.26,33.91-7.26,75.73-7.26S174.65,102.08,174.65,106.09Z" transform="translate(0 0.94)"/><path class="cls-40" d="M173.91,106.09c0,4-33.58,7.19-75,7.19s-75-3.22-75-7.19,33.57-7.19,75-7.19S173.91,102.12,173.91,106.09Z" transform="translate(0 0.94)"/><path class="cls-41" d="M173.16,106.09c0,3.93-33.24,7.12-74.25,7.12S24.67,110,24.67,106.09,57.91,99,98.91,99,173.16,102.16,173.16,106.09Z" transform="translate(0 0.94)"/><path class="cls-42" d="M172.41,106.09c0,3.89-32.9,7-73.5,7s-73.49-3.16-73.49-7,32.9-7,73.49-7S172.41,102.2,172.41,106.09Z" transform="translate(0 0.94)"/><path class="cls-43" d="M171.66,106.09c0,3.85-32.57,7-72.75,7s-72.74-3.13-72.74-7,32.57-7,72.74-7S171.66,102.24,171.66,106.09Z" transform="translate(0 0.94)"/><path class="cls-44" d="M170.92,106.09c0,3.81-32.24,6.9-72,6.9s-72-3.09-72-6.9,32.23-6.9,72-6.9S170.92,102.28,170.92,106.09Z" transform="translate(0 0.94)"/><path class="cls-45" d="M170.17,106.09c0,3.77-31.9,6.83-71.26,6.83s-71.25-3.06-71.25-6.83,31.9-6.83,71.25-6.83S170.17,102.32,170.17,106.09Z" transform="translate(0 0.94)"/><path class="cls-46" d="M169.42,106.09c0,3.73-31.57,6.76-70.51,6.76s-70.5-3-70.5-6.76S60,99.33,98.91,99.33,169.42,102.36,169.42,106.09Z" transform="translate(0 0.94)"/><path class="cls-47" d="M168.67,106.09c0,3.69-31.23,6.69-69.76,6.69s-69.75-3-69.75-6.69S60.39,99.4,98.91,99.4,168.67,102.39,168.67,106.09Z" transform="translate(0 0.94)"/><path class="cls-48" d="M167.93,106.09c0,3.65-30.9,6.62-69,6.62s-69-3-69-6.62,30.89-6.62,69-6.62S167.93,102.43,167.93,106.09Z" transform="translate(0 0.94)"/><path class="cls-49" d="M167.18,106.09c0,3.61-30.57,6.54-68.27,6.54s-68.26-2.93-68.26-6.54,30.57-6.55,68.26-6.55S167.18,102.47,167.18,106.09Z" transform="translate(0 0.94)"/><path class="cls-50" d="M166.43,106.09c0,3.57-30.23,6.47-67.52,6.47s-67.51-2.9-67.51-6.47,30.23-6.47,67.51-6.47S166.43,102.51,166.43,106.09Z" transform="translate(0 0.94)"/><path class="cls-51" d="M165.68,106.09c0,3.53-29.89,6.4-66.77,6.4s-66.76-2.87-66.76-6.4,29.89-6.4,66.76-6.4S165.68,102.55,165.68,106.09Z" transform="translate(0 0.94)"/><path class="cls-52" d="M164.93,106.09c0,3.49-29.55,6.33-66,6.33s-66-2.84-66-6.33,29.55-6.33,66-6.33S164.93,102.59,164.93,106.09Z" transform="translate(0 0.94)"/><path class="cls-53" d="M164.19,106.09c0,3.46-29.23,6.26-65.28,6.26s-65.26-2.8-65.26-6.26,29.22-6.26,65.26-6.26S164.19,102.63,164.19,106.09Z" transform="translate(0 0.94)"/><path class="cls-54" d="M163.44,106.09c0,3.42-28.89,6.19-64.53,6.19s-64.52-2.77-64.52-6.19S63.28,99.9,98.91,99.9,163.44,102.67,163.44,106.09Z" transform="translate(0 0.94)"/><path class="cls-55" d="M162.69,106.09c0,3.38-28.55,6.11-63.78,6.11s-63.77-2.73-63.77-6.11S63.69,100,98.91,100,162.69,102.71,162.69,106.09Z" transform="translate(0 0.94)"/><path class="cls-56" d="M161.94,106.09c0,3.34-28.22,6-63,6s-63-2.7-63-6,28.22-6,63-6S161.94,102.75,161.94,106.09Z" transform="translate(0 0.94)"/><path class="cls-57" d="M161.2,106.09c0,3.3-27.89,6-62.29,6s-62.27-2.67-62.27-6,27.88-6,62.27-6S161.2,102.79,161.2,106.09Z" transform="translate(0 0.94)"/><path class="cls-58" d="M160.45,106.09c0,3.26-27.55,5.9-61.54,5.9s-61.53-2.64-61.53-5.9,27.55-5.9,61.53-5.9S160.45,102.83,160.45,106.09Z" transform="translate(0 0.94)"/><path class="cls-59" d="M159.7,106.09c0,3.22-27.21,5.83-60.79,5.83s-60.78-2.61-60.78-5.83,27.21-5.83,60.78-5.83S159.7,102.87,159.7,106.09Z" transform="translate(0 0.94)"/><path class="cls-60" d="M159,106.09c0,3.18-26.88,5.76-60,5.76s-60-2.58-60-5.76,26.88-5.76,60-5.76S159,102.91,159,106.09Z" transform="translate(0 0.94)"/><path class="cls-61" d="M158.2,106.09c0,3.14-26.54,5.68-59.29,5.68s-59.28-2.54-59.28-5.68,26.54-5.69,59.28-5.69S158.2,103,158.2,106.09Z" transform="translate(0 0.94)"/><path class="cls-62" d="M157.46,106.09c0,3.1-26.21,5.61-58.55,5.61s-58.54-2.51-58.54-5.61,26.21-5.61,58.54-5.61S157.46,103,157.46,106.09Z" transform="translate(0 0.94)"/><path class="cls-63" d="M156.71,106.09c0,3.06-25.88,5.54-57.8,5.54s-57.79-2.48-57.79-5.54,25.88-5.54,57.79-5.54S156.71,103,156.71,106.09Z" transform="translate(0 0.94)"/><path class="cls-64" d="M156,106.09c0,3-25.54,5.47-57.05,5.47s-57-2.45-57-5.47,25.54-5.47,57-5.47S156,103.07,156,106.09Z" transform="translate(0 0.94)"/><path class="cls-65" d="M155.21,106.09c0,3-25.2,5.4-56.3,5.4s-56.29-2.42-56.29-5.4,25.2-5.4,56.29-5.4S155.21,103.11,155.21,106.09Z" transform="translate(0 0.94)"/><path class="cls-66" d="M154.47,106.09c0,2.94-24.88,5.33-55.56,5.33S43.37,109,43.37,106.09s24.87-5.33,55.54-5.33S154.47,103.15,154.47,106.09Z" transform="translate(0 0.94)"/><path class="cls-67" d="M153.72,106.09c0,2.9-24.54,5.25-54.81,5.25s-54.8-2.35-54.8-5.25,24.54-5.26,54.8-5.26S153.72,103.19,153.72,106.09Z" transform="translate(0 0.94)"/><path class="cls-68" d="M153,106.09c0,2.86-24.2,5.18-54.06,5.18s-54-2.32-54-5.18,24.2-5.18,54.05-5.18S153,103.23,153,106.09Z" transform="translate(0 0.94)"/><path class="cls-69" d="M152.22,106.09c0,2.82-23.86,5.11-53.31,5.11s-53.3-2.29-53.3-5.11S69.47,101,98.91,101,152.22,103.27,152.22,106.09Z" transform="translate(0 0.94)"/><path class="cls-70" d="M151.48,106.09c0,2.78-23.54,5-52.57,5s-52.55-2.26-52.55-5,23.53-5,52.55-5S151.48,103.31,151.48,106.09Z" transform="translate(0 0.94)"/><path class="cls-71" d="M150.73,106.09c0,2.74-23.2,5-51.82,5s-51.81-2.23-51.81-5,23.2-5,51.81-5S150.73,103.35,150.73,106.09Z" transform="translate(0 0.94)"/><path class="cls-72" d="M150,106.09c0,2.7-22.86,4.9-51.07,4.9s-51.06-2.2-51.06-4.9,22.86-4.9,51.06-4.9S150,103.38,150,106.09Z" transform="translate(0 0.94)"/><path class="cls-73" d="M149.23,106.09c0,2.66-22.53,4.82-50.32,4.82s-50.31-2.16-50.31-4.82,22.53-4.82,50.31-4.82S149.23,103.42,149.23,106.09Z" transform="translate(0 0.94)"/><path class="cls-74" d="M148.48,106.09c0,2.62-22.19,4.75-49.57,4.75s-49.56-2.13-49.56-4.75,22.19-4.75,49.56-4.75S148.48,103.46,148.48,106.09Z" transform="translate(0 0.94)"/><path class="cls-75" d="M147.74,106.09c0,2.58-21.86,4.68-48.83,4.68s-48.82-2.1-48.82-4.68,21.86-4.68,48.82-4.68S147.74,103.5,147.74,106.09Z" transform="translate(0 0.94)"/><path class="cls-76" d="M147,106.09c0,2.54-21.53,4.61-48.08,4.61s-48.07-2.07-48.07-4.61,21.52-4.61,48.07-4.61S147,103.54,147,106.09Z" transform="translate(0 0.94)"/><path class="cls-77" d="M146.24,106.09c0,2.5-21.19,4.54-47.33,4.54s-47.32-2-47.32-4.54,21.19-4.54,47.32-4.54S146.24,103.58,146.24,106.09Z" transform="translate(0 0.94)"/><path class="cls-78" d="M145.49,106.09c0,2.46-20.85,4.47-46.58,4.47s-46.57-2-46.57-4.47,20.85-4.47,46.57-4.47S145.49,103.62,145.49,106.09Z" transform="translate(0 0.94)"/><path class="cls-79" d="M144.75,106.09c0,2.43-20.52,4.39-45.84,4.39s-45.82-2-45.82-4.39,20.51-4.39,45.82-4.39S144.75,103.66,144.75,106.09Z" transform="translate(0 0.94)"/><path class="cls-80" d="M144,106.09c0,2.39-20.19,4.32-45.09,4.32s-45.08-1.93-45.08-4.32,20.19-4.32,45.08-4.32S144,103.7,144,106.09Z" transform="translate(0 0.94)"/><path class="cls-81" d="M143.25,106.09c0,2.35-19.85,4.25-44.34,4.25s-44.33-1.9-44.33-4.25,19.85-4.25,44.33-4.25S143.25,103.74,143.25,106.09Z" transform="translate(0 0.94)"/><path class="cls-82" d="M142.5,106.09c0,2.31-19.51,4.18-43.59,4.18s-43.58-1.87-43.58-4.18,19.51-4.18,43.58-4.18S142.5,103.78,142.5,106.09Z" transform="translate(0 0.94)"/><path class="cls-83" d="M141.75,106.09c0,2.27-19.18,4.11-42.84,4.11s-42.83-1.84-42.83-4.11S75.26,102,98.91,102,141.75,103.82,141.75,106.09Z" transform="translate(0 0.94)"/><path class="cls-84" d="M141,106.09c0,2.23-18.85,4-42.1,4s-42.09-1.81-42.09-4,18.85-4,42.09-4S141,103.86,141,106.09Z" transform="translate(0 0.94)"/><path class="cls-85" d="M140.26,106.09c0,2.19-18.51,4-41.35,4s-41.34-1.77-41.34-4,18.51-4,41.34-4S140.26,103.9,140.26,106.09Z" transform="translate(0 0.94)"/><path class="cls-86" d="M139.51,106.09c0,2.15-18.18,3.89-40.6,3.89s-40.59-1.74-40.59-3.89,18.17-3.89,40.59-3.89S139.51,103.94,139.51,106.09Z" transform="translate(0 0.94)"/><path class="cls-87" d="M138.76,106.09c0,2.11-17.84,3.82-39.85,3.82s-39.84-1.71-39.84-3.82,17.84-3.82,39.84-3.82S138.76,104,138.76,106.09Z" transform="translate(0 0.94)"/><path class="cls-88" d="M138,106.09c0,2.07-17.51,3.75-39.11,3.75s-39.1-1.68-39.1-3.75,17.51-3.75,39.1-3.75S138,104,138,106.09Z" transform="translate(0 0.94)"/><path class="cls-89" d="M137.27,106.09c0,2-17.17,3.68-38.36,3.68s-38.35-1.65-38.35-3.68,17.17-3.68,38.35-3.68S137.27,104.06,137.27,106.09Z" transform="translate(0 0.94)"/><path class="cls-90" d="M136.52,106.09c0,2-16.84,3.61-37.61,3.61s-37.6-1.62-37.6-3.61,16.84-3.61,37.6-3.61S136.52,104.1,136.52,106.09Z" transform="translate(0 0.94)"/><path class="cls-91" d="M135.77,106.09c0,2-16.5,3.53-36.86,3.53S62.06,108,62.06,106.09s16.5-3.53,36.85-3.53S135.77,104.14,135.77,106.09Z" transform="translate(0 0.94)"/><path class="cls-92" d="M135,106.09c0,1.91-16.17,3.46-36.12,3.46s-36.1-1.55-36.1-3.46,16.16-3.46,36.1-3.46S135,104.18,135,106.09Z" transform="translate(0 0.94)"/><path class="cls-93" d="M134.28,106.09c0,1.87-15.84,3.39-35.37,3.39S63.55,108,63.55,106.09s15.83-3.39,35.36-3.39S134.28,104.22,134.28,106.09Z" transform="translate(0 0.94)"/><path class="cls-94" d="M133.53,106.09c0,1.83-15.5,3.32-34.62,3.32s-34.61-1.49-34.61-3.32,15.5-3.32,34.61-3.32S133.53,104.26,133.53,106.09Z" transform="translate(0 0.94)"/><path class="cls-95" d="M132.78,106.09c0,1.79-15.16,3.25-33.87,3.25s-33.86-1.46-33.86-3.25,15.16-3.25,33.86-3.25S132.78,104.3,132.78,106.09Z" transform="translate(0 0.94)"/><path class="cls-96" d="M132,106.09c0,1.75-14.82,3.18-33.12,3.18s-33.11-1.43-33.11-3.18,14.82-3.18,33.11-3.18S132,104.34,132,106.09Z" transform="translate(0 0.94)"/><path class="cls-97" d="M131.29,106.09c0,1.71-14.5,3.1-32.38,3.1s-32.37-1.39-32.37-3.1S81,103,98.91,103,131.29,104.37,131.29,106.09Z" transform="translate(0 0.94)"/><path class="cls-98" d="M130.54,106.09c0,1.67-14.16,3-31.63,3s-31.62-1.36-31.62-3,14.16-3,31.62-3S130.54,104.41,130.54,106.09Z" transform="translate(0 0.94)"/><path class="cls-99" d="M129.79,106.09c0,1.63-13.82,3-30.88,3S68,107.72,68,106.09s13.82-3,30.87-3S129.79,104.45,129.79,106.09Z" transform="translate(0 0.94)"/><path class="cls-100" d="M129,106.09c0,1.59-13.49,2.89-30.13,2.89s-30.12-1.3-30.12-2.89,13.49-2.89,30.12-2.89S129,104.49,129,106.09Z" transform="translate(0 0.94)"/><path class="cls-101" d="M128.3,106.09c0,1.55-13.16,2.82-29.39,2.82s-29.38-1.27-29.38-2.82,13.16-2.82,29.38-2.82S128.3,104.53,128.3,106.09Z" transform="translate(0 0.94)"/><path class="cls-102" d="M127.55,106.09c0,1.51-12.82,2.75-28.64,2.75s-28.63-1.24-28.63-2.75,12.82-2.75,28.63-2.75S127.55,104.57,127.55,106.09Z" transform="translate(0 0.94)"/><path class="cls-103" d="M126.8,106.09c0,1.47-12.49,2.67-27.89,2.67S71,107.56,71,106.09s12.48-2.67,27.88-2.67S126.8,104.61,126.8,106.09Z" transform="translate(0 0.94)"/><path class="cls-104" d="M126.05,106.09c0,1.44-12.15,2.6-27.14,2.6s-27.13-1.16-27.13-2.6,12.15-2.6,27.13-2.6S126.05,104.65,126.05,106.09Z" transform="translate(0 0.94)"/><path class="cls-105" d="M125.3,106.09c0,1.4-11.81,2.53-26.39,2.53s-26.39-1.13-26.39-2.53,11.82-2.53,26.39-2.53S125.3,104.69,125.3,106.09Z" transform="translate(0 0.94)"/><path class="cls-106" d="M124.56,106.09c0,1.36-11.48,2.46-25.65,2.46s-25.64-1.1-25.64-2.46,11.48-2.46,25.64-2.46S124.56,104.73,124.56,106.09Z" transform="translate(0 0.94)"/><path class="cls-107" d="M123.81,106.09c0,1.32-11.15,2.39-24.9,2.39S74,107.41,74,106.09s11.15-2.39,24.89-2.39S123.81,104.77,123.81,106.09Z" transform="translate(0 0.94)"/><path class="cls-108" d="M123.06,106.09c0,1.28-10.81,2.32-24.15,2.32s-24.14-1-24.14-2.32,10.81-2.32,24.14-2.32S123.06,104.81,123.06,106.09Z" transform="translate(0 0.94)"/><path d="M122.31,106.09c0,1.24-10.47,2.24-23.4,2.24s-23.39-1-23.39-2.24,10.47-2.24,23.39-2.24S122.31,104.85,122.31,106.09Z" transform="translate(0 0.94)"/></g><path class="cls-109" d="M142.81,92.48c2.08,3.46,3.88,10.37,4.24,13.11a3.92,3.92,0,0,0,.12.54,2,2,0,0,0,1.26,1.43l.3.08.22,0a3.25,3.25,0,0,0,2.14-.64,2.76,2.76,0,0,0,.69-.94c.93-2,1.21-6.18.68-11.45a24.07,24.07,0,0,0-6-13.68,3.9,3.9,0,0,1-1.36,5.46l-.24.13-.15.06a3.74,3.74,0,0,1-1.53.32,3.9,3.9,0,0,1-2.33-.77C140.25,88.06,141.09,89.64,142.81,92.48Z" transform="translate(0 0.94)"/><path class="cls-110" d="M142.81,92.48c2.08,3.46,3.88,10.37,4.24,13.11a3.92,3.92,0,0,0,.12.54,2,2,0,0,0,1.26,1.43c.71-3.73-.05-6.76-1.74-11.37-1.83-5-2.3-5.83-2-9.58a3.74,3.74,0,0,1-1.53.32,3.9,3.9,0,0,1-2.33-.77C140.25,88.06,141.09,89.64,142.81,92.48Z" transform="translate(0 0.94)"/><path class="cls-111" d="M145.51,93.28l.45.91c1.95,4,3.8,7.74,2.77,13.45l.22,0c1-5.81-.92-9.75-2.8-13.57l-.45-.92c-1.41-2.91-1.14-4.23-.79-5.89q.1-.42.18-.87l-.24.13q-.07.36-.15.69C144.34,89,144.06,90.3,145.51,93.28Z" transform="translate(0 0.94)"/><path class="cls-112" d="M126.67,86c5.68-.07,10.4-1.79,12.69-2.16a3.5,3.5,0,0,1-.09-.8,4.06,4.06,0,0,1,.11-.92s0,0,0,0a1.89,1.89,0,0,1,.06-.18,3.88,3.88,0,0,1,3.72-2.75l.3,0c-4.72-2-16-2.45-21.85-1.3-.39.08-.76.17-1.1.26l-.22.06c-1.35.39-2.22.9-2.35,1.55C117.31,82.93,120.4,86.06,126.67,86Z" transform="translate(0 0.94)"/><path class="cls-110" d="M126.67,86c5.68-.07,10.4-1.79,12.69-2.16a3.5,3.5,0,0,1-.09-.8,4.35,4.35,0,0,1,.12-1c-5.7-.08-17.4.21-17.77-4.21-2.09.42-3.5,1-3.67,1.87C117.31,82.93,120.4,86.06,126.67,86Z" transform="translate(0 0.94)"/><path class="cls-111" d="M120.3,78.19c.68,1.24,2.76,3.33,9,3.85a66.25,66.25,0,0,0,9.43.11l.64,0s0,0,0,0a1.89,1.89,0,0,1,.06-.18l-.71,0a67.51,67.51,0,0,1-9.41-.11c-6-.51-8.1-2.52-8.81-3.7Z" transform="translate(0 0.94)"/><path class="cls-113" d="M147.05,110.63a1.66,1.66,0,0,0,1.24,1,2.52,2.52,0,0,0,2-.47c.58-.46.91-1.86,1.17-3.27.11-.61.21-1.23.31-1.77a2.76,2.76,0,0,1-.69.94,3.14,3.14,0,0,1-2.32.61,1.94,1.94,0,0,1-1.6-1.51c-.07.47-.15,1-.21,1.58A7.24,7.24,0,0,0,147.05,110.63Z" transform="translate(0 0.94)"/><path class="cls-114" d="M139.27,83a3.5,3.5,0,0,0,.09.8,3.86,3.86,0,0,0,1.48,2.32,3.89,3.89,0,0,0,5.61-5.2,3.86,3.86,0,0,0-3-1.79l-.3,0a3.77,3.77,0,0,0-2.34.79A3.84,3.84,0,0,0,139.27,83Z" transform="translate(0 0.94)"/><path class="cls-115" d="M140.57,81.31a4.26,4.26,0,0,0,.08.8,3.9,3.9,0,0,0,3.81,3.09,3.82,3.82,0,0,0,2.34-.79,3.88,3.88,0,0,0-3.33-5.24l-.3,0a3.77,3.77,0,0,0-2.34.79A3.67,3.67,0,0,0,140.57,81.31Z" transform="translate(0 0.94)"/><path class="cls-116" d="M141,83a2.19,2.19,0,0,0,.88,1.73A2.15,2.15,0,0,0,145,81.89a2.18,2.18,0,0,0-1.66-1h-.16a2.09,2.09,0,0,0-.91.2A2.18,2.18,0,0,0,141,83Z" transform="translate(0 0.94)"/><path class="cls-117" d="M141.65,82.57a2.3,2.3,0,0,0,0,.45,2.19,2.19,0,0,0,2.11,1.72A1.81,1.81,0,0,0,145,81.89a2.18,2.18,0,0,0-1.66-1h-.16a2.09,2.09,0,0,0-.91.2A2.14,2.14,0,0,0,141.65,82.57Z" transform="translate(0 0.94)"/><path class="cls-118" d="M147,107.71a3,3,0,0,0,4.51.15c.11-.61.21-1.23.31-1.77a2.76,2.76,0,0,1-.69.94c-1,.79-3.31,1.22-3.92-.9C147.1,106.6,147,107.15,147,107.71Z" transform="translate(0 0.94)"/><path class="cls-119" d="M147.05,110.63a1.66,1.66,0,0,0,1.24,1,22.94,22.94,0,0,1,.48-4,1.94,1.94,0,0,1-1.6-1.51c-.07.47-.15,1-.21,1.58A7.24,7.24,0,0,0,147.05,110.63Z" transform="translate(0 0.94)"/><path class="cls-120" d="M134.57,72.32c-.64,1.08-25.47.65-35,.65-8.38,0-27.32.18-32.48.06A10.82,10.82,0,0,1,65.84,73c-1.21-.25-1.12-12.25-1-18.62,0-1.38.08-2.53.18-3.46v0c0-.49.12-.92.19-1.3.45-2.21,1.31-2.57,2.6-1.82,1.94,1.13,11.67,8.73,15.17,9.52,7,1.56,23.9,1.76,28.58.07a125.61,125.61,0,0,0,17.56-8.06,25.66,25.66,0,0,1,2.72-1.51c2.16-1,2.55-.18,2.65,2.49,0,.28,0,.56,0,.87s0,.44,0,.69h0C134.62,56.93,135.24,71.2,134.57,72.32Z" transform="translate(0 0.94)"/><path class="cls-115" d="M134.49,51.82h0a57,57,0,0,1-14.34,12.29c-7.1,4.48-13.47,6.68-20,6.68A36.6,36.6,0,0,1,84.81,67C74.94,62.52,68.38,55.23,65,50.89v0l.2-1.3c3.16,4.15,9.79,11.9,20,16.59,12.3,5.63,22.27,4.79,34.43-2.87,8-5,12.53-10,14.81-13q0,.41,0,.87C134.48,51.33,134.49,51.57,134.49,51.82Z" transform="translate(0 0.94)"/><path class="cls-121" d="M55,93c-2.09,3.46-3.89,10.37-4.25,13.11a2.85,2.85,0,0,1-.12.54,2,2,0,0,1-1.25,1.43l-.31.08-.21,0a3.23,3.23,0,0,1-2.14-.64,2.64,2.64,0,0,1-.69-.94c-.94-2-1.22-6.18-.68-11.45a24.07,24.07,0,0,1,6-13.68,3.93,3.93,0,0,0-.61,2.08,3.88,3.88,0,0,0,2,3.38,1.34,1.34,0,0,0,.24.12l.15.08A3.9,3.9,0,0,0,57,86.67C57.59,88.57,56.75,90.15,55,93Z" transform="translate(0 0.94)"/><path class="cls-110" d="M55,93c-2.09,3.46-3.89,10.37-4.25,13.11a2.85,2.85,0,0,1-.12.54,2,2,0,0,1-1.25,1.43c-.72-3.73.05-6.76,1.73-11.37,1.84-5,2.3-5.83,2-9.57A3.9,3.9,0,0,0,57,86.67C57.59,88.57,56.75,90.15,55,93Z" transform="translate(0 0.94)"/><path class="cls-111" d="M52.33,93.79l-.45.91c-2,4-3.8,7.74-2.78,13.45l-.21,0c-1-5.81.92-9.75,2.79-13.57.16-.31.3-.61.46-.91,1.41-2.92,1.13-4.24.78-5.9-.06-.28-.12-.56-.17-.87a1.34,1.34,0,0,0,.24.12c0,.25.1.48.14.7C53.49,89.46,53.77,90.81,52.33,93.79Z" transform="translate(0 0.94)"/><path class="cls-122" d="M71.16,86.51c-5.67-.07-10.39-1.79-12.68-2.16a4.26,4.26,0,0,0,.08-.8,3.91,3.91,0,0,0-.11-.91v0l-.06-.18a3.88,3.88,0,0,0-3.72-2.76l-.3,0c4.71-2,16-2.45,21.85-1.29.39.07.76.16,1.09.25l.23.06c1.35.39,2.21.91,2.34,1.56C80.53,83.44,77.43,86.58,71.16,86.51Z" transform="translate(0 0.94)"/><path class="cls-110" d="M71.16,86.51c-5.67-.07-10.39-1.79-12.68-2.16a4.1,4.1,0,0,0,0-1.75c5.7-.09,17.39.21,17.77-4.21,2.09.41,3.49,1,3.66,1.87C80.53,83.44,77.43,86.58,71.16,86.51Z" transform="translate(0 0.94)"/><path class="cls-111" d="M77.54,78.7c-.68,1.24-2.77,3.33-9,3.86a67.47,67.47,0,0,1-9.43.1l-.64,0v0l-.06-.18.71,0a65.66,65.66,0,0,0,9.41-.1c6-.51,8.1-2.52,8.8-3.7Z" transform="translate(0 0.94)"/><path class="cls-123" d="M50.78,111.14a1.63,1.63,0,0,1-1.23,1,2.51,2.51,0,0,1-2-.47c-.58-.45-.92-1.85-1.17-3.27-.12-.61-.21-1.23-.31-1.77a2.64,2.64,0,0,0,.69.94,3.19,3.19,0,0,0,2.32.62,1.94,1.94,0,0,0,1.59-1.52c.08.47.16,1,.22,1.58A7.39,7.39,0,0,1,50.78,111.14Z" transform="translate(0 0.94)"/><path class="cls-124" d="M58.56,83.55a4.26,4.26,0,0,1-.08.8A3.92,3.92,0,0,1,57,86.67a3.88,3.88,0,0,1-6-1.74,3.72,3.72,0,0,1-.26-1.38,3.89,3.89,0,0,1,3.59-3.87l.3,0a3.91,3.91,0,0,1,3.89,3.89Z" transform="translate(0 0.94)"/><path class="cls-115" d="M57.27,81.82a3.5,3.5,0,0,1-.09.8,4,4,0,0,1-1.48,2.32,3.89,3.89,0,0,1-2.32.77A3.83,3.83,0,0,1,51,84.93a3.72,3.72,0,0,1-.26-1.38,3.89,3.89,0,0,1,3.59-3.87l.3,0a3.88,3.88,0,0,1,2.34.79A3.67,3.67,0,0,1,57.27,81.82Z" transform="translate(0 0.94)"/><path class="cls-116" d="M56.83,83.55a2.28,2.28,0,0,1,0,.45A2.16,2.16,0,0,1,56,85.28a2.16,2.16,0,0,1-3.45-1.73,2.18,2.18,0,0,1,2-2.15h.17a2,2,0,0,1,.91.21A2.15,2.15,0,0,1,56.83,83.55Z" transform="translate(0 0.94)"/><path class="cls-117" d="M56.18,83.08a2.28,2.28,0,0,1,0,.45,2.13,2.13,0,0,1-.83,1.28,2.08,2.08,0,0,1-1.29.44,2.12,2.12,0,0,1-.9-.2A2.16,2.16,0,0,1,54.5,81.4h.17a2,2,0,0,1,.91.21A2.13,2.13,0,0,1,56.18,83.08Z" transform="translate(0 0.94)"/><path class="cls-118" d="M50.88,108.22a3,3,0,0,1-4.51.15c-.12-.61-.21-1.23-.31-1.77a2.64,2.64,0,0,0,.69.94c1,.79,3.31,1.23,3.91-.9C50.74,107.11,50.82,107.66,50.88,108.22Z" transform="translate(0 0.94)"/><path class="cls-119" d="M50.78,111.14a1.63,1.63,0,0,1-1.23,1,23.84,23.84,0,0,0-.48-4,1.94,1.94,0,0,0,1.59-1.52c.08.47.16,1,.22,1.58A7.39,7.39,0,0,1,50.78,111.14Z" transform="translate(0 0.94)"/><path class="cls-110" d="M134.57,72.32c-.64,1.08-25.47.65-35,.65-8.38,0-27.32.18-32.48.06,0-2.64,0-6,.06-8.31.14-4.54-2.2-13.83,4.63-9.19s16.51,11.56,33.26,9.54c15.54-1.87,22.61-11.37,26.74-17.3,2.16-1,2.55-.18,2.65,2.49,0,.28,0,.56,0,.87s0,.44,0,.69h0C134.62,56.93,135.24,71.2,134.57,72.32Z" transform="translate(0 0.94)"/><path class="cls-125" d="M111.9,26.44V64.61a3,3,0,0,1-3,3H86.76a3,3,0,0,1-3-3V26.44a3,3,0,0,1,3-3h22.29A3,3,0,0,1,111.9,26.44Z" transform="translate(0 0.94)"/><path class="cls-126" d="M109.48,23.42c-.24,2.95-1,11.3-1.87,12-1.08.86-6.61-.2-6.9.66s-.37,10.36-2,10.36-2.3-9.8-2.59-10.45-5.47.29-7.13-.71c-1-.64-1.55-8.61-1.79-11.89h22.24Z" transform="translate(0 0.94)"/><path class="cls-127" d="M46.87,80.8c-2.09,3.46-3.9,10.37-4.25,13.11a3.92,3.92,0,0,1-.12.54,2,2,0,0,1-1.26,1.43,1.57,1.57,0,0,1-.31.08.71.71,0,0,1-.21,0,3.25,3.25,0,0,1-2.14-.64,2.67,2.67,0,0,1-.69-.94c-.94-2-1.22-6.18-.68-11.44a24.08,24.08,0,0,1,6-13.69,3.93,3.93,0,0,0-.6,2.09,3.88,3.88,0,0,0,2,3.37l.24.13.15.07a3.91,3.91,0,0,0,1.53.31,3.83,3.83,0,0,0,2.33-.77C49.42,76.39,48.58,78,46.87,80.8Z" transform="translate(0 0.94)"/><path class="cls-110" d="M46.87,80.8c-2.09,3.46-3.9,10.37-4.25,13.11a3.92,3.92,0,0,1-.12.54,2,2,0,0,1-1.26,1.43c-.71-3.73,0-6.76,1.74-11.37,1.83-5,2.3-5.82,2-9.57a3.91,3.91,0,0,0,1.53.31,3.83,3.83,0,0,0,2.33-.77C49.42,76.39,48.58,78,46.87,80.8Z" transform="translate(0 0.94)"/><path class="cls-111" d="M44.16,81.6c-.15.31-.29.61-.45.91-2,4-3.8,7.74-2.78,13.45a.71.71,0,0,1-.21,0c-1-5.81.92-9.75,2.8-13.57l.45-.91a7.58,7.58,0,0,0,.79-5.9c-.06-.28-.13-.56-.18-.87l.24.13q.07.36.15.69C45.33,77.27,45.61,78.62,44.16,81.6Z" transform="translate(0 0.94)"/><path class="cls-128" d="M63,74.32c-5.68-.06-10.4-1.78-12.69-2.16a4.16,4.16,0,0,0,.09-.79,3.93,3.93,0,0,0-.11-.92.06.06,0,0,1,0,0l-.06-.18a3.87,3.87,0,0,0-3.72-2.75h-.3c4.72-1.95,16-2.44,21.86-1.29.38.08.75.16,1.09.26a.79.79,0,0,1,.22.06c1.35.38,2.22.9,2.34,1.55C72.36,71.25,69.26,74.39,63,74.32Z" transform="translate(0 0.94)"/><path class="cls-110" d="M63,74.32c-5.68-.06-10.4-1.78-12.69-2.16a4.16,4.16,0,0,0,.09-.79,4.35,4.35,0,0,0-.12-1c5.7-.08,17.4.21,17.78-4.21,2.08.41,3.49,1,3.65,1.87C72.36,71.25,69.26,74.39,63,74.32Z" transform="translate(0 0.94)"/><path class="cls-111" d="M69.37,66.52c-.68,1.23-2.77,3.32-9,3.85a65.93,65.93,0,0,1-9.43.1l-.64,0a.06.06,0,0,1,0,0l-.06-.18.71,0a68.78,68.78,0,0,0,9.41-.1c6-.52,8.1-2.52,8.81-3.7A.79.79,0,0,1,69.37,66.52Z" transform="translate(0 0.94)"/><path class="cls-129" d="M42.62,99a1.68,1.68,0,0,1-1.24,1,2.55,2.55,0,0,1-2-.47c-.58-.46-.92-1.86-1.17-3.27-.11-.62-.21-1.24-.31-1.78a2.67,2.67,0,0,0,.69.94A3.2,3.2,0,0,0,40.9,96a1.94,1.94,0,0,0,1.6-1.52c.07.48.15,1,.21,1.58A7.29,7.29,0,0,1,42.62,99Z" transform="translate(0 0.94)"/><path class="cls-130" d="M50.4,71.37a4.16,4.16,0,0,1-.09.79,3.92,3.92,0,0,1-1.48,2.32,3.89,3.89,0,0,1-6-1.74,3.87,3.87,0,0,1-.25-1.37,3.87,3.87,0,0,1,3.58-3.88h.3a3.9,3.9,0,0,1,3.9,3.89Z" transform="translate(0 0.94)"/><path class="cls-115" d="M49.1,69.64a4.07,4.07,0,0,1-.08.79,3.88,3.88,0,0,1-6.15,2.31,3.87,3.87,0,0,1-.25-1.37,3.87,3.87,0,0,1,3.58-3.88h.3a3.83,3.83,0,0,1,2.34.78A3.72,3.72,0,0,1,49.1,69.64Z" transform="translate(0 0.94)"/><path class="cls-116" d="M48.67,71.37a2.28,2.28,0,0,1-.05.44,2.13,2.13,0,0,1-.83,1.28,2.1,2.1,0,0,1-1.29.44A2.15,2.15,0,0,1,45,72.86a2.11,2.11,0,0,1-.6-1.49,2.17,2.17,0,0,1,.33-1.16,2.13,2.13,0,0,1,1.66-1l.16,0a2,2,0,0,1,.91.21A2.16,2.16,0,0,1,48.67,71.37Z" transform="translate(0 0.94)"/><path class="cls-117" d="M48,70.9a2.2,2.2,0,0,1-.05.44,2.16,2.16,0,0,1-3,1.52,2.11,2.11,0,0,1-.6-1.49,2.17,2.17,0,0,1,.33-1.16,2.13,2.13,0,0,1,1.66-1l.16,0a2,2,0,0,1,.91.21A2.1,2.1,0,0,1,48,70.9Z" transform="translate(0 0.94)"/><path class="cls-131" d="M43.22,70.79A3,3,0,0,1,46.86,68,6.76,6.76,0,0,0,43.22,70.79Z" transform="translate(0 0.94)"/><path class="cls-118" d="M42.71,96a3,3,0,0,1-4.51.16c-.11-.62-.21-1.24-.31-1.78a2.67,2.67,0,0,0,.69.94c1,.8,3.31,1.23,3.92-.9C42.57,94.93,42.65,95.48,42.71,96Z" transform="translate(0 0.94)"/><path class="cls-119" d="M42.62,99a1.68,1.68,0,0,1-1.24,1,22.94,22.94,0,0,0-.48-4,1.94,1.94,0,0,0,1.6-1.52c.07.48.15,1,.21,1.58A7.29,7.29,0,0,1,42.62,99Z" transform="translate(0 0.94)"/><path class="cls-132" d="M42.19,75.65c-.65-1.51-2.63-.6-3.49,3.62a33.65,33.65,0,0,0-.6,10.37c.19,2.11,1.09,1.08,1.2-1.67a26.08,26.08,0,0,1,1.26-6.35C41.49,78.24,43,77.55,42.19,75.65Z" transform="translate(0 0.94)"/><path class="cls-132" d="M54.79,66.11c-1.84.2-4,.51-3.92,1s1.08.27,3.43.16,4-.23,3.77-.75S56.61,65.92,54.79,66.11Z" transform="translate(0 0.94)"/><path class="cls-110" d="M111.9,49.09V64.61a3,3,0,0,1-3,3H86.76a3,3,0,0,1-3-3V60.32C94.46,60.85,107.28,52.42,111.9,49.09Z" transform="translate(0 0.94)"/><path class="cls-133" d="M113.66,4.86V12A4.75,4.75,0,0,1,109,16.85H87.47A4.75,4.75,0,0,1,82.83,12V4.86a4.88,4.88,0,0,1,.62-2.41A4.78,4.78,0,0,1,85.07.7,4.71,4.71,0,0,1,86.28.16,4.27,4.27,0,0,1,87.47,0H109a4.38,4.38,0,0,1,1.19.16,4.67,4.67,0,0,1,1.94,1.12A4.92,4.92,0,0,1,113.66,4.86Z" transform="translate(0 0.94)"/><path class="cls-134" d="M151,80.29c2.09,3.46,3.89,10.37,4.25,13.11a3.92,3.92,0,0,0,.12.54,2,2,0,0,0,1.25,1.43,1.77,1.77,0,0,0,.31.08,1.66,1.66,0,0,0,.22,0,3.22,3.22,0,0,0,2.13-.64,2.55,2.55,0,0,0,.69-.94c.94-2,1.22-6.18.68-11.45a23.94,23.94,0,0,0-6-13.67,4,4,0,0,1,.6,2.07,3.88,3.88,0,0,1-2,3.38l-.24.13-.14.07a4,4,0,0,1-1.54.31A3.89,3.89,0,0,1,149,74C148.42,75.88,149.25,77.45,151,80.29Z" transform="translate(0 0.94)"/><path class="cls-110" d="M151,80.29c2.09,3.46,3.89,10.37,4.25,13.11a3.92,3.92,0,0,0,.12.54,2,2,0,0,0,1.25,1.43c.72-3.73,0-6.76-1.73-11.37-1.83-5-2.3-5.83-2-9.57a4,4,0,0,1-1.54.31A3.89,3.89,0,0,1,149,74C148.42,75.88,149.25,77.45,151,80.29Z" transform="translate(0 0.94)"/><path class="cls-111" d="M153.67,81.09l.45.91c2,4,3.81,7.74,2.78,13.45a1.66,1.66,0,0,0,.22,0c1-5.81-.92-9.75-2.8-13.57-.16-.3-.3-.61-.45-.91-1.42-2.92-1.14-4.23-.79-5.9.06-.27.12-.56.17-.87l-.24.13c0,.24-.09.47-.14.7C152.51,76.76,152.23,78.11,153.67,81.09Z" transform="translate(0 0.94)"/><path class="cls-135" d="M134.84,73.81c5.68-.07,10.4-1.79,12.68-2.16a4.17,4.17,0,0,1-.08-.8,3.91,3.91,0,0,1,.11-.91s0,0,0,0a1.21,1.21,0,0,1,.05-.18A3.89,3.89,0,0,1,151.33,67l.3,0c-4.71-2-16-2.44-21.85-1.29-.39.08-.75.16-1.09.25l-.23.06c-1.34.39-2.21.91-2.34,1.55C125.47,70.74,128.57,73.88,134.84,73.81Z" transform="translate(0 0.94)"/><path class="cls-110" d="M134.84,73.81c5.68-.07,10.4-1.79,12.68-2.16a4.17,4.17,0,0,1-.08-.8,3.75,3.75,0,0,1,.12-.95c-5.71-.08-17.4.21-17.78-4.21-2.09.41-3.49,1-3.66,1.86C125.47,70.74,128.57,73.88,134.84,73.81Z" transform="translate(0 0.94)"/><path class="cls-111" d="M128.46,66c.69,1.24,2.77,3.33,9,3.86a65.94,65.94,0,0,0,9.43.1l.64,0s0,0,0,0a1.21,1.21,0,0,1,.05-.18l-.71,0a67.37,67.37,0,0,1-9.4-.11c-6-.51-8.11-2.52-8.81-3.7Z" transform="translate(0 0.94)"/><path class="cls-136" d="M155.22,98.44a1.64,1.64,0,0,0,1.24,1,2.5,2.5,0,0,0,2-.47c.58-.45.92-1.85,1.18-3.26.11-.62.2-1.24.3-1.78a2.55,2.55,0,0,1-.69.94,3.17,3.17,0,0,1-2.31.62,1.94,1.94,0,0,1-1.6-1.52c-.08.47-.16,1-.22,1.58A7.4,7.4,0,0,0,155.22,98.44Z" transform="translate(0 0.94)"/><path class="cls-137" d="M147.44,70.85a4.17,4.17,0,0,0,.08.8,3.9,3.9,0,0,0,3.81,3.09A3.87,3.87,0,0,0,155,72.23a3.72,3.72,0,0,0,.26-1.38A3.89,3.89,0,0,0,151.63,67l-.3,0a3.82,3.82,0,0,0-2.34.79A3.87,3.87,0,0,0,147.44,70.85Z" transform="translate(0 0.94)"/><path class="cls-115" d="M148.74,69.12a4.17,4.17,0,0,0,.08.8,3.93,3.93,0,0,0,3.81,3.1,3.83,3.83,0,0,0,2.33-.79,3.72,3.72,0,0,0,.26-1.38A3.89,3.89,0,0,0,151.63,67l-.3,0a3.82,3.82,0,0,0-2.34.79A3.87,3.87,0,0,0,148.74,69.12Z" transform="translate(0 0.94)"/><path class="cls-116" d="M149.17,70.85a2.3,2.3,0,0,0,.05.45,2.07,2.07,0,0,0,.82,1.28,2.16,2.16,0,0,0,3.45-1.73,2.06,2.06,0,0,0-.34-1.15,2.13,2.13,0,0,0-1.65-1l-.17,0a2.32,2.32,0,0,0-.91.2A2.17,2.17,0,0,0,149.17,70.85Z" transform="translate(0 0.94)"/><path class="cls-117" d="M149.82,70.39a2.25,2.25,0,0,0,0,.44,2.21,2.21,0,0,0,.83,1.29,2.15,2.15,0,0,0,1.29.43,2.08,2.08,0,0,0,.9-.2,2.12,2.12,0,0,0,.61-1.5,2.06,2.06,0,0,0-.34-1.15,2.13,2.13,0,0,0-1.65-1l-.17,0a2.32,2.32,0,0,0-.91.2A2.18,2.18,0,0,0,149.82,70.39Z" transform="translate(0 0.94)"/><path class="cls-118" d="M155.12,95.52a3.06,3.06,0,0,0,4.52.16c.11-.62.2-1.24.3-1.78a2.55,2.55,0,0,1-.69.94c-1,.8-3.3,1.23-3.91-.9C155.26,94.41,155.18,95,155.12,95.52Z" transform="translate(0 0.94)"/><path class="cls-119" d="M155.22,98.44a1.64,1.64,0,0,0,1.24,1,21.89,21.89,0,0,1,.48-4,1.94,1.94,0,0,1-1.6-1.52c-.08.47-.16,1-.22,1.58A7.4,7.4,0,0,0,155.22,98.44Z" transform="translate(0 0.94)"/><path class="cls-132" d="M155.64,75.65c.65-1.51,2.63-.6,3.49,3.62a33.34,33.34,0,0,1,.6,10.37c-.18,2.11-1.08,1.08-1.19-1.67a26.68,26.68,0,0,0-1.27-6.35C156.35,78.24,154.83,77.55,155.64,75.65Z" transform="translate(0 0.94)"/><path class="cls-132" d="M143.05,66.11c1.84.2,4,.51,3.92,1s-1.09.27-3.44.16-4-.23-3.77-.75S141.23,65.92,143.05,66.11Z" transform="translate(0 0.94)"/><g class="cls-138"><rect class="cls-139" x="85.79" y="0.94" width="24.92" height="14.77"/><path class="cls-139" d="M86,6.48c.49-4.76,6.54-8,13.53-7.32s12.24,5.16,11.76,9.92-6.55,8-13.53,7.32S85.55,11.24,86,6.48Z" transform="translate(0 0.94)"/><path class="cls-140" d="M86.67,6.55c.47-4.52,6.22-7.64,12.85-7S111.16,4.49,110.69,9s-6.21,7.64-12.85,7S86.21,11.07,86.67,6.55Z" transform="translate(0 0.94)"/><path class="cls-141" d="M87.31,6.61C87.74,2.33,93.2-.62,99.48,0s11,4.64,10.58,8.93-5.89,7.23-12.17,6.59S86.87,10.9,87.31,6.61Z" transform="translate(0 0.94)"/><path class="cls-142" d="M87.94,6.68c.41-4,5.56-6.84,11.49-6.23s10.42,4.38,10,8.43-5.56,6.83-11.5,6.23S87.52,10.72,87.94,6.68Z" transform="translate(0 0.94)"/><path class="cls-143" d="M88.57,6.74C89,2.93,93.8.31,99.39.88s9.8,4.13,9.41,7.94S103.56,15.25,98,14.67,88.18,10.55,88.57,6.74Z" transform="translate(0 0.94)"/><path class="cls-144" d="M89.2,6.81c.37-3.57,4.91-6,10.15-5.5s9.18,3.87,8.81,7.44-4.9,6-10.14,5.49S88.84,10.38,89.2,6.81Z" transform="translate(0 0.94)"/><path class="cls-145" d="M89.84,6.87c.34-3.33,4.58-5.63,9.46-5.13s8.58,3.62,8.23,7-4.58,5.62-9.47,5.12S89.49,10.2,89.84,6.87Z" transform="translate(0 0.94)"/><path class="cls-146" d="M90.47,6.94c.31-3.1,4.25-5.23,8.79-4.76s8,3.35,7.64,6.44-4.25,5.23-8.79,4.76S90.15,10,90.47,6.94Z" transform="translate(0 0.94)"/><path class="cls-147" d="M91.1,7c.29-2.85,3.92-4.82,8.12-4.39s7.34,3.09,7,6-3.93,4.82-8.12,4.39S90.81,9.86,91.1,7Z" transform="translate(0 0.94)"/><path class="cls-148" d="M91.73,7.06c.27-2.61,3.6-4.42,7.44-4s6.73,2.83,6.47,5.45-3.6,4.42-7.44,4S91.46,9.69,91.73,7.06Z" transform="translate(0 0.94)"/><path class="cls-149" d="M92.36,7.13c.25-2.38,3.28-4,6.77-3.66s6.12,2.58,5.87,5-3.27,4-6.76,3.66S92.12,9.51,92.36,7.13Z" transform="translate(0 0.94)"/><path class="cls-150" d="M93,7.19c.22-2.14,3-3.61,6.09-3.29s5.51,2.32,5.29,4.46-2.94,3.62-6.08,3.3S92.78,9.34,93,7.19Z" transform="translate(0 0.94)"/><path class="cls-151" d="M93.63,7.26c.19-1.9,2.61-3.21,5.41-2.93s4.89,2.06,4.7,4-2.62,3.21-5.41,2.93S93.43,9.16,93.63,7.26Z" transform="translate(0 0.94)"/><path class="cls-152" d="M94.26,7.33c.17-1.67,2.29-2.82,4.73-2.57s4.29,1.81,4.12,3.47-2.29,2.82-4.74,2.57S94.09,9,94.26,7.33Z" transform="translate(0 0.94)"/><path class="cls-153" d="M94.89,7.39C95,6,96.86,5,99,5.19s3.67,1.55,3.53,3-2,2.41-4.06,2.19S94.74,8.82,94.89,7.39Z" transform="translate(0 0.94)"/><path class="cls-154" d="M95.52,7.45c.13-1.18,1.64-2,3.39-1.83s3,1.29,2.93,2.48-1.63,2-3.38,1.83S95.4,8.65,95.52,7.45Z" transform="translate(0 0.94)"/><path class="cls-155" d="M96.15,7.52c.1-.95,1.31-1.61,2.71-1.47s2.45,1,2.35,2S99.9,9.65,98.51,9.5,96.06,8.47,96.15,7.52Z" transform="translate(0 0.94)"/><path class="cls-156" d="M96.79,7.58c.07-.71,1-1.2,2-1.1s1.83.78,1.76,1.49-1,1.21-2,1.1S96.71,8.3,96.79,7.58Z" transform="translate(0 0.94)"/><path class="cls-157" d="M97.42,7.65c0-.48.65-.8,1.35-.73s1.23.51,1.18,1-.65.8-1.36.73S97.37,8.12,97.42,7.65Z" transform="translate(0 0.94)"/><path class="cls-115" d="M98.05,7.71c0-.24.33-.4.68-.36s.61.26.59.49-.33.41-.68.37S98,8,98.05,7.71Z" transform="translate(0 0.94)"/></g><path class="cls-158" d="M107.51,43.67a1.16,1.16,0,0,0-.76-.27c-1.32,0-2.52,2.13-4.18,5.09-.42.75-.86,1.53-1.31,2.29-.75,1.27-1.43,1.92-2,1.92-.74,0-1.52-1.05-2.27-2.05l-.26-.35-1-1.31c-2.35-3.25-4.26-5.73-5.47-5.73a.92.92,0,0,0-.33.06c-.25.1-1,.4-.85,5.81V67.64H90V49.11a18,18,0,0,1,.35-5c.89.08,3.49,3.65,4.74,5.38.37.51.71,1,1,1.32l.26.35c.92,1.23,1.79,2.39,3,2.39.93,0,1.81-.74,2.75-2.34.46-.77.9-1.55,1.32-2.3,1.23-2.19,2.61-4.66,3.43-4.66a.36.36,0,0,1,.21.07c.54.92.6,8.75.17,23.31H108C108.56,48.42,108.23,44.21,107.51,43.67Z" transform="translate(0 0.94)"/><path class="cls-159" d="M130.75,79.59c-.58,1-22.78.58-31.28.58H96.72c-9.51,0-26.45.18-27.43,0s-1-11-.94-16.64c0-1.24.07-2.27.16-3.1v0c0-.44.11-.82.18-1.16.4-2,1.17-2.3,2.32-1.63,1.73,1,10.43,7.81,13.56,8.51,6.27,1.4,21.37,1.58,25.55.07A113.17,113.17,0,0,0,125.83,59a13.78,13.78,0,0,1,3.28-1.66c1.2-.27,1.45.56,1.53,2.54,0,.24,0,.5,0,.78s0,.39,0,.61h0C130.79,65.83,131.35,78.59,130.75,79.59Z" transform="translate(0 0.94)"/><path class="cls-115" d="M130.68,61.26h0a51.39,51.39,0,0,1-12.82,11c-6.36,4-12.06,6-17.88,6a32.62,32.62,0,0,1-13.72-3.35A49.1,49.1,0,0,1,68.51,60.43v0l.18-1.16C71.53,63,77.46,69.89,86.62,74.08c11,5,19.9,4.29,30.77-2.56a48.88,48.88,0,0,0,13.25-11.65c0,.24,0,.5,0,.78S130.67,61,130.68,61.26Z" transform="translate(0 0.94)"/><path class="cls-110" d="M113.66,4.86V12A4.75,4.75,0,0,1,109,16.85h0c2.65-1.39,3.29-4.38,3.32-7.13,0-2.25-.07-6-.17-8.44A4.92,4.92,0,0,1,113.66,4.86Z" transform="translate(0 0.94)"/><path class="cls-160" d="M84.53,14.77c-1.14-.69-1.08-3.37-1.08-3.37V2.45A4.78,4.78,0,0,1,85.07.7c-.08,2.3-.22,6.58-.22,9C84.85,13.18,85.66,15.45,84.53,14.77Z" transform="translate(0 0.94)"/><g class="cls-161"><g class="cls-162"><rect class="cls-139" x="98.22" y="0.94" width="12.48" height="14.77"/><path class="cls-139" d="M96.3,6.92c.32-3.16,4.34-5.34,9-4.86s8.12,3.42,7.8,6.58-4.34,5.33-9,4.86S96,10.08,96.3,6.92Z" transform="translate(0 0.94)"/><path class="cls-140" d="M96.72,7c.31-3,4.12-5.06,8.52-4.61S113,5.6,112.65,8.6s-4.12,5.06-8.52,4.61S96.41,10,96.72,7Z" transform="translate(0 0.94)"/><path class="cls-141" d="M97.14,7c.29-2.85,3.91-4.8,8.07-4.38s7.31,3.08,7,5.92-3.9,4.8-8.07,4.37S96.85,9.85,97.14,7Z" transform="translate(0 0.94)"/><path class="cls-142" d="M97.56,7.05c.27-2.69,3.69-4.53,7.63-4.13s6.9,2.9,6.62,5.59-3.69,4.53-7.62,4.13S97.28,9.73,97.56,7.05Z" transform="translate(0 0.94)"/><path class="cls-143" d="M98,7.09c.26-2.52,3.47-4.26,7.17-3.89s6.5,2.74,6.25,5.27-3.48,4.26-7.18,3.88S97.72,9.62,98,7.09Z" transform="translate(0 0.94)"/><path class="cls-144" d="M98.39,7.13c.25-2.37,3.26-4,6.74-3.64s6.09,2.56,5.84,4.93-3.25,4-6.73,3.65S98.16,9.5,98.39,7.13Z" transform="translate(0 0.94)"/><path class="cls-145" d="M98.82,7.18c.22-2.21,3-3.74,6.27-3.4s5.69,2.39,5.46,4.6-3,3.73-6.28,3.4S98.59,9.39,98.82,7.18Z" transform="translate(0 0.94)"/><path class="cls-146" d="M99.24,7.22c.2-2,2.82-3.47,5.83-3.16s5.28,2.23,5.07,4.28-2.82,3.46-5.84,3.16S99,9.27,99.24,7.22Z" transform="translate(0 0.94)"/><path class="cls-147" d="M99.65,7.26c.2-1.89,2.61-3.2,5.39-2.91s4.87,2.05,4.68,3.94-2.61,3.21-5.39,2.92S99.46,9.16,99.65,7.26Z" transform="translate(0 0.94)"/><path class="cls-148" d="M100.07,7.3c.18-1.73,2.39-2.93,4.94-2.66s4.47,1.88,4.29,3.61-2.39,2.93-4.94,2.68S99.9,9,100.07,7.3Z" transform="translate(0 0.94)"/><path class="cls-149" d="M100.49,7.35c.16-1.58,2.17-2.67,4.49-2.43s4.06,1.71,3.9,3.29-2.17,2.67-4.49,2.43S100.33,8.93,100.49,7.35Z" transform="translate(0 0.94)"/><path class="cls-150" d="M100.91,7.39c.15-1.42,2-2.4,4-2.18s3.65,1.54,3.51,3-1.95,2.39-4,2.18S100.76,8.81,100.91,7.39Z" transform="translate(0 0.94)"/><path class="cls-151" d="M101.33,7.44c.13-1.27,1.74-2.14,3.59-1.95s3.25,1.37,3.12,2.63-1.74,2.13-3.59,2S101.2,8.7,101.33,7.44Z" transform="translate(0 0.94)"/><path class="cls-152" d="M101.75,7.48c.11-1.11,1.52-1.87,3.14-1.7s2.84,1.19,2.73,2.3-1.52,1.87-3.14,1.7S101.64,8.58,101.75,7.48Z" transform="translate(0 0.94)"/><path class="cls-153" d="M102.17,7.52c.1-.95,1.3-1.6,2.69-1.46s2.44,1,2.34,2-1.3,1.6-2.69,1.45S102.07,8.47,102.17,7.52Z" transform="translate(0 0.94)"/><path class="cls-154" d="M102.59,7.57c.08-.79,1.08-1.34,2.24-1.22s2,.85,2,1.64-1.08,1.34-2.24,1.22S102.51,8.35,102.59,7.57Z" transform="translate(0 0.94)"/><path class="cls-155" d="M103,7.61c.06-.64.86-1.07,1.79-1s1.63.68,1.56,1.31-.87,1.07-1.79,1S102.94,8.24,103,7.61Z" transform="translate(0 0.94)"/><path class="cls-156" d="M103.43,7.65c0-.47.65-.8,1.34-.73s1.22.51,1.17,1-.65.8-1.34.73S103.38,8.12,103.43,7.65Z" transform="translate(0 0.94)"/><path class="cls-157" d="M103.85,7.69c0-.31.43-.53.89-.48s.82.34.78.65-.43.54-.89.49S103.81,8,103.85,7.69Z" transform="translate(0 0.94)"/><path class="cls-115" d="M104.26,7.74c0-.16.22-.27.46-.25s.4.18.39.33-.22.27-.45.25S104.25,7.9,104.26,7.74Z" transform="translate(0 0.94)"/></g></g><g class="cls-163"><path class="cls-164" d="M100.05,8.36a4.25,4.25,0,1,1,4.25,4.24A4.25,4.25,0,0,1,100.05,8.36Z" transform="translate(0 0.94)"/></g><g class="cls-165"><path class="cls-166" d="M87.51,8.36a4.25,4.25,0,1,1,4.25,4.24A4.25,4.25,0,0,1,87.51,8.36Z" transform="translate(0 0.94)"/></g><path class="cls-132" d="M50.31,88.12c-.65-1.51-2.63-.59-3.49,3.62a33.34,33.34,0,0,0-.6,10.37c.19,2.11,1.08,1.08,1.19-1.67a26.53,26.53,0,0,1,1.27-6.34C49.61,90.72,51.13,90,50.31,88.12Z" transform="translate(0 0.94)"/><path class="cls-132" d="M62.9,78.58c-1.83.2-4,.51-3.92,1s1.09.28,3.44.16,4-.23,3.77-.75S64.72,78.39,62.9,78.58Z" transform="translate(0 0.94)"/><path class="cls-132" d="M147.48,87.84c.65-1.51,2.63-.6,3.48,3.62a33.38,33.38,0,0,1,.61,10.37c-.19,2.11-1.09,1.08-1.2-1.67a26.42,26.42,0,0,0-1.26-6.34C148.18,90.43,146.66,89.74,147.48,87.84Z" transform="translate(0 0.94)"/><path class="cls-132" d="M134.88,78.3c1.84.2,4,.51,3.92,1s-1.08.28-3.44.16-4-.22-3.76-.75S133.06,78.11,134.88,78.3Z" transform="translate(0 0.94)"/><path class="cls-167" d="M69.87,58.88c-.85.32-.66,6.82-.66,12s.47,5.94,1.16,5.61c.54-.25.65-3.74.65-8.6S71,58.45,69.87,58.88Z" transform="translate(0 0.94)"/><path class="cls-110" d="M130.75,79.59c-.58,1-22.78.58-31.28.58H96.72c17.38-4.29,29.22-16.89,32.39-22.85,1.2-.27,1.45.56,1.53,2.54,0,.24,0,.5,0,.78s0,.39,0,.61h0C130.79,65.83,131.35,78.59,130.75,79.59Z" transform="translate(0 0.94)"/><path class="cls-167" d="M66.21,48.51c-.5-.9,1.74-.26,3,1.06C69.19,49.57,66.74,49.48,66.21,48.51Z" transform="translate(0 0.94)"/><path class="cls-167" d="M85.57,26.15c-.91-.07-.86,5.42-.86,9.15s.21,14.22.43,14.94,1.58,1.63,1.58-1.69S87.38,26.28,85.57,26.15Z" transform="translate(0 0.94)"/><path class="cls-110" d="M111.9,26.44v.06a4.48,4.48,0,0,1-2.44.73H87.9a4.59,4.59,0,0,1-3.85-2.15,3,3,0,0,1,2.71-1.67h22.29A3,3,0,0,1,111.9,26.44Z" transform="translate(0 0.94)"/><path class="cls-168" d="M103.48,16.85s0,1.08,0,2.47a50.87,50.87,0,0,1-.28,5.67c-.2,1.07-.94,1.75-2.56,2.05a13.18,13.18,0,0,1-2.47.19c-3.38,0-4.83-1.37-5-2.38a54.74,54.74,0,0,1-.06-5.64c0-1.33.06-2.36.06-2.36Z" transform="translate(0 0.94)"/><path class="cls-169" d="M103.48,16.85s0,1.08,0,2.47a26.29,26.29,0,0,0-10.42-.11c0-1.33.06-2.36.06-2.36Z" transform="translate(0 0.94)"/><path class="cls-170" d="M103.48,16.85s0,1.08,0,2.47a50.87,50.87,0,0,1-.28,5.67c-.2,1.07-.94,1.75-2.56,2.05a30.42,30.42,0,0,0,.85-10.19Z" transform="translate(0 0.94)"/><path class="cls-171" d="M93.93,19.56c-.54.36-.38,3.29-.27,4.59s.81,1.45.81-.44S94.41,19.23,93.93,19.56Z" transform="translate(0 0.94)"/><path class="cls-172" d="M83.27,68.52c-.47.84,5.4,6.58,14.55,6.45s13.58-5.34,13.78-6.45-6.1,2.25-14.88,2S83.7,67.75,83.27,68.52Z" transform="translate(0 0.94)"/></g></g></g></svg>